<?xml version="1.0" encoding="utf-8"?>
<!-- Generator: Adobe Illustrator 15.0.0, SVG Export Plug-In . SVG Version: 6.00 Build 0)  -->
<!DOCTYPE svg PUBLIC "-//W3C//DTD SVG 1.1//EN" "http://www.w3.org/Graphics/SVG/1.1/DTD/svg11.dtd">
<svg version="1.1" id="Layer_1" xmlns="http://www.w3.org/2000/svg" xmlns:xlink="http://www.w3.org/1999/xlink" x="0px" y="0px"
	 width="73.6px" height="110.694px" viewBox="0 0 73.6 110.694" enable-background="new 0 0 73.6 110.694" xml:space="preserve">
<path fill="none" stroke="#010101" stroke-width="2" d="M1,109.5v-6.7c9.2-4.6,16.6-10.6,22.1-18c5.5-7.399,8.3-13.2,8.3-17.399
	c0-2-0.6-3.301-1.9-3.601c-11-1.7-18-5.8-21-12.4S4,38.6,4,32.7c0-9.6,3.3-17.3,9.8-23.1C20.3,3.8,27.8,1,36.5,1
	c10.6,0,19.3,3.8,26,11.3c6.7,7.6,10.1,16.7,10.1,27.5c0,9.6-3,19.3-8.899,29c-6,9.7-14.4,18.3-25.4,25.7C27.4,102,15,107,1,109.5z"
	/>
</svg>
