<?xml version="1.0" encoding="utf-8"?>
<!-- Generator: Adobe Illustrator 15.0.0, SVG Export Plug-In . SVG Version: 6.00 Build 0)  -->
<!DOCTYPE svg PUBLIC "-//W3C//DTD SVG 1.1//EN" "http://www.w3.org/Graphics/SVG/1.1/DTD/svg11.dtd">
<svg version="1.1" id="Layer_1" xmlns="http://www.w3.org/2000/svg" xmlns:xlink="http://www.w3.org/1999/xlink" x="0px" y="0px"
	 width="71.6px" height="108.5px" viewBox="0 0 71.6 108.5" enable-background="new 0 0 71.6 108.5" xml:space="preserve">
<path fill="#010101" d="M0,108.5v-6.7c9.2-4.6,16.6-10.6,22.1-18C27.6,76.4,30.4,70.6,30.4,66.4c0-2-0.601-3.301-1.9-3.601
	c-11-1.7-18-5.8-21-12.4S3,37.6,3,31.7c0-9.6,3.3-17.3,9.8-23.1C19.3,2.8,26.8,0,35.5,0c10.6,0,19.3,3.8,26,11.3
	c6.7,7.6,10.1,16.7,10.1,27.5c0,9.6-3,19.3-8.899,29c-6,9.7-14.4,18.3-25.4,25.7C26.4,101,14,106,0,108.5z"/>
</svg>
