<?xml version="1.0" encoding="utf-8"?>
<!-- Generator: Adobe Illustrator 15.0.0, SVG Export Plug-In . SVG Version: 6.00 Build 0)  -->
<!DOCTYPE svg PUBLIC "-//W3C//DTD SVG 1.1//EN" "http://www.w3.org/Graphics/SVG/1.1/DTD/svg11.dtd">
<svg version="1.1" id="Layer_1" xmlns="http://www.w3.org/2000/svg" xmlns:xlink="http://www.w3.org/1999/xlink" x="0px" y="0px"
	 width="40.212px" height="91.6px" viewBox="0 0 40.212 91.6" enable-background="new 0 0 40.212 91.6" xml:space="preserve">
<line fill="none" stroke="#010101" stroke-width="4" stroke-miterlimit="10" x1="20.112" y1="86.7" x2="20.112" y2="0"/>
<path fill="#010101" d="M40.212,61c0-0.7-0.3-1.3-0.899-1.7c-0.9-0.6-2.2-0.3-2.801,0.601L20.112,85.8L3.712,60
	c-0.6-0.9-1.8-1.2-2.8-0.6c-0.9,0.6-1.2,1.8-0.6,2.8l18.1,28.5c0.4,0.6,1,0.899,1.7,0.899s1.3-0.399,1.7-0.899l18.1-28.5
	C40.112,61.8,40.212,61.4,40.212,61C40.212,60.4,40.212,61.4,40.212,61z"/>
</svg>
