<?xml version="1.0" encoding="utf-8"?>
<!-- Generator: Adobe Illustrator 15.0.0, SVG Export Plug-In . SVG Version: 6.00 Build 0)  -->
<!DOCTYPE svg PUBLIC "-//W3C//DTD SVG 1.1//EN" "http://www.w3.org/Graphics/SVG/1.1/DTD/svg11.dtd">
<svg version="1.1" id="Layer_1" xmlns="http://www.w3.org/2000/svg" xmlns:xlink="http://www.w3.org/1999/xlink" x="0px" y="0px"
	 width="487.768px" height="565.822px" viewBox="0 0 487.768 565.822" enable-background="new 0 0 487.768 565.822"
	 xml:space="preserve">
<path fill="#FBB754" d="M412.361,24.919c-1.172-0.391-4.427-1.172-7.683-0.912c6.641-8.073,13.412-16.146,16.928-19.792
	c-0.912,4.427-3.256,13.412-5.859,22.136C414.444,25.57,413.143,25.179,412.361,24.919z"/>
<path fill="#D383B6" d="M246.475,172.576c-1.563,60.938-6.12,84.376-49.48,88.152c-0.391,0-0.781,0.261-1.042,0.521
	c-0.26,0.261-0.391,0.651-0.26,1.042c0.13,0.781,3.646,17.969,17.188,25.912c-23.568,7.031-38.281-1.693-44.922-7.553
	c-8.985-7.942-13.933-19.531-12.11-29.037c1.042-5.859,3.385-9.896,6.771-11.979c2.083-1.303,4.427-1.563,6.25-1.563
	c-2.083,1.822-3.385,4.688-3.255,7.552c0.13,2.864,1.954,9.766,16.667,10.938c26.172,2.214,41.537-25.651,48.438-87.631
	c7.031-62.11,51.303-79.688,57.813-81.902c0.13,1.432,0.26,2.865,0.521,4.297C288.532,91.977,247.906,112.029,246.475,172.576z"/>
<path fill="#D383B6" d="M384.627,44.06c4.427-4.818,13.151-13.933,16.797-16.146c4.297-2.604,12.239,0.13,13.542,1.302
	c-0.391,2.083-4.818,10.547-9.375,18.229C401.424,45.622,391.268,43.799,384.627,44.06z"/>
<path fill="#FBB754" d="M198.817,263.463c43.881-4.558,48.829-30.078,50.392-90.756c1.302-54.559,34.896-75.131,40.364-77.996
	c0.391,1.953,0.781,3.776,1.172,5.729c-0.26,0-0.521,0.13-0.781,0.26c-15.495,11.458-23.698,54.818-19.531,102.866
	c3.906,44.922-13.933,61.719-29.688,67.97c-4.297,1.692-7.683,1.822-10.026,0.26c-3.385-2.213-3.646-7.161-3.646-7.161
	c0-0.521-0.391-1.042-0.911-1.303c-0.521-0.26-1.172-0.13-1.563,0.391c-4.297,4.428-5.208,10.548-2.344,15.626
	c2.865,5.208,8.724,8.072,16.537,8.594c-9.115,2.604-17.188,2.214-23.698-1.302C204.286,280.65,199.989,267.76,198.817,263.463z"/>
<path fill="#F38171" d="M274.079,463.204c2.344,6.25,3.646,11.85,2.344,14.323c-4.948,9.245-13.021,14.063-21.225,12.761
	c-1.302-0.261-3.906-1.692-7.161-4.167C258.714,481.304,271.214,466.72,274.079,463.204z"/>
<path fill="#F38171" d="M449.08,260.077C449.08,259.947,449.08,259.947,449.08,260.077c4.037,7.031,6.511,13.412,6.251,16.146
	c-0.782,6.119-12.11,12.109-16.798,12.109c-2.344-0.13-6.641-5.078-10.025-9.245c-0.391-0.391-0.651-0.781-1.042-1.172
	C437.622,273.489,448.56,260.599,449.08,260.077z"/>
<path fill="#F38171" d="M431.111,295.625c2.344,5.729,3.516,10.416,3.256,12.5c-0.781,7.942-9.766,12.5-16.016,12.761
	c-2.084,0.13-5.99-3.125-10.026-6.771C413.924,307.734,427.856,297.969,431.111,295.625z"/>
<path fill="#F38171" d="M340.225,444.194c2.214,4.688,3.646,8.463,3.646,10.416c0,2.734-1.823,5.469-5.078,7.683
	c-5.078,3.516-12.761,5.209-17.058,3.776c-1.563-0.521-4.427-2.995-7.942-6.511C323.168,456.434,337.36,446.277,340.225,444.194z"/>
<path fill="#F38171" d="M381.371,47.314c4.818-1.953,20.834,1.042,23.698,2.865c0.131,2.604-6.641,15.365-13.411,26.302
	c-7.422-3.646-17.969-7.552-31.901-9.896C366.007,60.335,377.726,48.877,381.371,47.314z"/>
<path fill="#FBD6CC" d="M339.054,441.59c-1.433,1.042-17.97,13.151-26.954,15.625c0,0-0.13,0-0.13,0.13
	c-10.808-11.458-26.172-30.599-31.12-36.979c14.323-3.385,26.823-8.333,37.5-14.192C323.428,414.246,333.193,430.001,339.054,441.59
	z"/>
<path fill="#FBD6CC" d="M446.997,258.254c-0.13,0.131-11.719,13.673-21.224,17.318c-1.823-2.083-3.516-3.776-5.078-4.558
	c-1.693-2.213-3.386-4.297-5.209-6.25c-6.771-7.161-13.672-10.938-20.313-11.067c-0.521-4.818-2.995-12.761-6.12-21.094
	c4.558-0.521,28.776-3.256,39.975,3.255c6.641,3.906,13.802,13.151,19.011,21.875C447.518,257.733,447.258,257.994,446.997,258.254z
	"/>
<path fill="#FBB754" d="M358.063,82.602c-19.792-7.292-34.245-1.302-38.933,1.172c-1.302-2.474-2.604-4.948-3.906-7.422
	c2.344-1.953,14.975-10.808,40.365-7.422c0.391,0.391,1.042,0.521,1.563,0.261c0.261,0,0.391,0,0.651,0.13
	c24.87,3.907,39.323,13.282,43.75,16.537C390.226,88.852,374.21,88.591,358.063,82.602z"/>
<path fill="#F38171" d="M373.949,108.123c-29.036,3.646-47.526-9.245-47.787-9.375h-0.13c-1.302-3.125-3.255-7.683-5.729-12.5
	c4.167-2.083,18.1-7.943,36.72-1.042c20.833,7.683,41.016,6.25,52.865,0.651C405.721,92.628,395.043,105.519,373.949,108.123z"/>
<path fill="#FBB754" d="M396.997,102.914c4.817-3.125,8.594-6.771,11.328-10.026c0.13,0.13,0.13,0.13,0.26,0.26
	c1.693,1.042,15.365,9.375,24.22,10.677C426.033,107.862,413.143,112.68,396.997,102.914z"/>
<path fill="#FBB754" d="M182.021,321.146c-3.255-1.822-13.802-6.901-26.042-3.516c-11.198,3.125-20.573,12.631-27.735,27.995
	c-1.172,2.475-2.213,4.948-2.995,7.422c-0.261-0.13-0.651-0.13-1.042,0.131c-5.989,2.864-11.458,3.255-15.885,1.172
	c-5.469-2.475-8.594-8.073-10.026-11.589c7.813,2.344,18.49-6.12,39.063-24.35c20.183-17.839,42.188-4.817,47.917-1.041
	C183.974,318.542,182.932,319.714,182.021,321.146z"/>
<path fill="#F38171" d="M299.079,204.738c-5.078,44.792-22.396,73.568-47.657,79.168c-12.891,2.864-22.786,0.521-26.563-6.12
	c-1.693-3.125-1.693-6.771,0.13-9.896c0.651,2.084,1.823,4.558,4.297,6.12c3.125,2.084,7.422,2.084,12.63,0
	c13.542-5.339,35.678-21.614,31.381-70.704c-4.037-46.224,3.775-89.323,18.229-100.261c0.521,1.953,1.172,3.906,1.953,5.729
	c-0.65,0.26-1.172,0.911-0.911,1.563C292.568,110.727,303.896,162.681,299.079,204.738z"/>
<path fill="#D383B6" d="M151.03,416.459c-3.255-20.442,0.912-41.406,10.417-52.344c3.906-4.428,8.464-6.771,13.151-6.771
	c0.391,6.771,1.302,14.063,2.995,21.745c-0.13,0.131-0.26,0.261-0.391,0.521c-0.13,0.261-14.323,27.996-8.724,65.887
	c2.083,13.672-1.693,25.261-10.807,33.334c-9.505,8.463-24.61,12.369-38.152,10.286C156.369,477.007,153.895,434.818,151.03,416.459
	z"/>
<path fill="#F38171" d="M100.509,435.73c1.953,0,3.646,0.911,5.078,1.953c-2.214,0-4.037,1.172-5.339,3.255
	c-3.776,6.12-1.823,20.313,4.948,25c2.865,1.953,8.984,3.776,17.057-6.9c10.808-14.193,7.943-31.381,4.818-49.61
	c-3.125-18.881-6.771-40.234,3.646-62.501c6.901-14.713,15.625-23.567,26.042-26.563c10.938-3.125,20.573,1.433,23.698,3.125
	c-4.297,7.422-6.38,18.229-5.99,31.12c-5.469,0.13-10.677,2.734-15.104,7.813c-10.026,11.459-14.453,33.464-11.068,54.559
	c2.995,18.359,5.469,61.979-35.026,70.964c-11.328,2.474-19.792,0.391-24.479-6.25c-6.901-9.896-4.557-27.734,2.083-38.282
	C93.999,438.334,97.254,435.73,100.509,435.73z"/>
<path fill="#FBD6CC" d="M459.888,120.232c-0.13,0-0.26,0-0.391,0c-13.802,0.912-38.281-7.813-39.323-8.073
	c-0.521-0.13-0.781-0.521-0.911-1.042c-0.781,0.13-1.563,0.13-2.344,0.13c-6.511,0.26-14.193-1.432-22.526-6.641
	c-0.131,0-0.131-0.13-0.131-0.13c-5.338,2.995-11.979,5.469-20.052,6.511c-2.604,0.391-5.208,0.521-7.683,0.651
	c-19.271,0.781-32.942-5.338-38.803-8.594c0.131,0.651-0.26,1.302-0.781,1.432c-0.781,0.261-1.563-0.13-1.822-0.781
	c-1.563-4.036-4.297-10.286-7.553-16.797c-0.13-0.13-0.26-0.26-0.391-0.391c-0.13-0.26-0.26-0.521-0.26-0.781
	c-5.99-11.849-13.412-24.219-18.75-24.74c-0.521,0-2.084-0.261-3.776,2.344c-5.339,8.463-4.037,35.938,4.036,49.349
	c0.391,0.651,0.131,1.563-0.521,1.954c-0.261,0.13-0.391,0.13-0.651,0.26c-0.521,0-0.911-0.26-1.302-0.651
	c0-0.13-0.13-0.13-0.13-0.26c2.604,13.412,9.766,55.6,5.859,91.147c-5.209,45.964-23.308,75.651-49.61,81.512
	c-4.558,2.344-11.328,5.338-19.011,8.724c-15.755,7.031-35.287,15.625-44.922,23.177c-14.453,11.198-14.713,47.006-0.391,86.851
	c11.979,33.594,41.537,65.626,57.553,78.646c11.458-3.906,26.953-23.178,27.083-23.308c0.131-0.13,0.261-0.261,0.391-0.391
	c-1.822-4.558-4.036-9.375-5.859-13.542c-5.729-12.761-8.464-19.011-5.989-21.224c0.391-0.391,0.781-0.651,1.172-1.042
	c4.297-3.646,11.328-9.636,20.442-29.818c4.037-8.984,6.901-23.828-2.344-43.75c-0.391-0.651-0.521-1.042-0.521-1.302
	c-0.261-0.781,0.261-1.433,0.911-1.693c0.781-0.26,1.433,0.131,1.693,0.912c0,0.13,0.26,0.521,0.391,0.911
	c9.766,20.964,6.771,36.589,2.474,46.094c-5.339,11.85-10.156,19.011-13.933,23.568c18.229-3.386,33.595-9.114,46.354-16.146
	c0.131-0.131,0.131-0.131,0.261-0.261s0.391-0.13,0.521-0.261c25.392-14.192,40.756-33.464,50.001-49.74
	c13.021-23.047,16.276-44.792,17.058-51.042c-1.172,0.261-2.604,0.651-4.167,1.042c-10.417,2.994-29.688,8.333-47.267-2.344
	c-0.65-0.391-0.911-1.303-0.521-1.953c0.391-0.651,1.303-0.912,1.953-0.521c16.407,10.026,34.376,5.078,45.053,2.084
	c2.604-0.781,4.688-1.303,6.25-1.563c4.688-0.651,11.068,5.469,17.969,11.979c0.521,0.391,0.912,0.912,1.433,1.433
	c6.25-7.161,21.615-17.708,23.698-19.141c-2.734-6.25-6.641-13.542-11.328-19.922c-0.261-0.131-0.391-0.391-0.521-0.651
	c-1.563-2.083-3.125-4.036-4.818-5.729c-6.641-7.031-13.281-10.416-19.531-10.286c-23.178,0.911-45.053-6.25-45.313-6.381
	c-0.781-0.26-1.172-1.041-0.911-1.822s1.042-1.172,1.823-0.912c0.26,0.131,20.703,6.771,42.839,6.251
	c-1.693-13.673-19.922-53.907-21.354-56.902c-21.745-2.734-31.511-17.969-31.901-18.62c-0.391-0.65-0.261-1.563,0.391-1.953
	s1.563-0.26,1.953,0.391c0.13,0.131,11.198,17.579,36.068,17.709c16.797,0.13,30.208-7.031,38.933-11.719
	c5.078-2.604,8.073-4.297,10.156-3.906c1.302,0.26,3.255,0.911,5.599,1.692c6.511,2.214,17.578,6.12,29.818,5.339
	c8.073-0.521,13.411-4.948,16.406-8.594c5.209-6.25,7.683-15.234,6.511-23.438C482.936,139.373,472.388,119.841,459.888,120.232z"/>
<path fill="#F38171" d="M311.059,102.784c-4.167-0.391-7.292-1.823-9.115-4.558c-4.036-5.859-1.822-15.625-0.65-19.662
	C307.152,83.904,310.146,97.966,311.059,102.784z"/>
<path fill="#FFFFFF" d="M378.246,48.356c1.172-0.912,1.953-1.172,3.125-1.302c0.651-0.521,2.344-0.391,2.734-0.391
	c0.261,0,0.391,0.13,0.521,0.26c1.692-0.13,3.516-0.521,5.208-0.391c3.906,0.261,8.594,1.302,12.24,2.995
	c1.172-2.213,2.344-4.297,3.516-6.511c2.083-3.906,4.297-7.942,6.119-11.979c-1.432-0.26-2.864-1.172-4.297-1.563
	c-2.213-0.521-5.208,0.26-7.031-1.302c-0.26-0.26-0.26-0.651,0-0.781c1.693-1.692,4.688-1.172,6.901-0.911
	c1.563,0.26,4.036,0.911,5.599,1.953c0.131-0.261,0.261-0.521,0.391-0.781c2.995-7.162,3.776-14.714,5.859-22.136
	c0-0.13,0.131-0.261,0.261-0.261c0-0.26,0-0.391,0-0.651c0-1.302,1.953-1.432,1.953-0.13c0,8.594-2.604,16.667-5.859,24.479
	c-1.302,3.386-2.734,6.771-4.297,10.026c-0.13,0.26-0.261,0.521-0.391,0.781c-2.864,6.641-5.599,13.281-8.724,19.792
	c-1.433,3.125-3.906,5.989-5.99,8.984c-0.261,0.391-0.391,0.781-0.651,1.172c0.261,0.26,0.391,0.651,0.131,1.042
	c-0.521,0.912-0.912,2.083-1.823,2.604c-0.13,0.13-0.261,0.13-0.391,0.13c-0.261,0.521-0.521,1.042-0.911,1.693v0.651
	c0,0.391-0.261,0.781-0.521,1.042c-0.391,0.261-0.781,0.521-1.302,0.781c-0.911,0.521-2.214-0.26-1.953-1.302
	c-0.13-0.391-0.13-0.912,0-1.302c3.516-7.813,7.683-15.495,11.719-23.047c-3.385-0.651-6.771-1.693-10.156-2.344
	c-1.953-0.391-3.646,0-5.469,0.26c-2.214,0.26-4.688-0.521-6.771-1.172C378.116,48.747,378.116,48.487,378.246,48.356z"/>
<path fill="#FFFFFF" d="M409.888,92.758c3.516,2.214,7.161,4.037,10.938,5.599c3.906,1.563,8.464,2.474,11.849,5.078
	c0.521,0.391,0.131,1.172-0.391,1.172c-3.906,0.391-7.813-1.693-11.328-2.995c-4.427-1.693-8.854-3.646-12.63-6.511
	C406.893,94.19,408.585,91.847,409.888,92.758z"/>
<path fill="#FFFFFF" d="M314.574,74.138c14.713-4.297,28.646-8.073,44.011-5.469c7.422,1.302,14.583,3.516,21.614,6.38
	c0.131-0.13,0.131-0.26,0.391-0.26c2.865-0.261,5.6,1.563,8.073,2.734s5.339,2.474,7.161,4.688c0.131,0.13,0.131,0.26,0.131,0.391
	c2.083,1.172,4.036,2.344,6.12,3.516c1.172,0.651,0.26,2.213-0.912,1.823c-13.672-5.338-25.911-12.5-40.495-15.625
	c-15.755-3.386-29.948,1.042-45.053,4.688C313.662,77.263,312.751,74.659,314.574,74.138z"/>
<path fill="#FFFFFF" d="M417.31,110.336c9.245,3.516,18.62,6.38,28.255,8.724c3.256,0.781,6.511,1.302,9.767,1.563
	c0.39-0.13,0.65-0.26,1.172-0.26c0.781,0,1.563,0,2.474,0c1.172,0,2.474-0.13,3.516,0.26c2.214,0.13,4.036,1.302,5.859,2.734
	c12.109,9.375,20.053,27.474,17.188,42.579c-0.13,1.042-1.822,0.781-1.822-0.13c-0.261-7.813-1.042-15.104-3.906-22.396
	c-2.604-6.51-10.026-19.662-18.1-19.922c-7.552-0.391-14.063-0.781-21.615-2.604c-8.072-1.953-16.146-4.557-23.958-7.552
	C414.705,112.68,415.747,109.815,417.31,110.336z"/>
<path fill="#F38171" d="M362.882,132.081c0,0.521-0.391,0.781-0.911,0.781c-0.781,0.13-1.563-0.651-2.214-1.172
	c-0.781-0.521-1.433-1.042-1.823-1.823c-0.26-0.521,0.391-1.302,0.912-1.172c0.911,0.13,1.563,0.651,2.213,1.302
	C361.971,130.649,362.752,131.169,362.882,132.081z"/>
<path fill="#F38171" d="M369.522,126.092c-0.261-0.521-0.521-1.042-0.911-1.563c-0.131-0.261-0.391-0.521-0.521-0.912
	c-0.13-0.26-0.13-0.651-0.26-0.912c-0.261-0.521,0.521-1.042,0.911-0.781c0.261,0.13,0.651,0.261,0.781,0.521
	c0.261,0.26,0.391,0.521,0.651,0.781c0.391,0.651,0.65,1.432,0.911,2.083C371.476,126.352,370.043,127.003,369.522,126.092z"/>
<path fill="#F38171" d="M382.022,120.623c-0.13,0.651-0.13,1.302-0.651,1.823c-0.26,0.391-1.041,0.26-1.302-0.13
	c-0.261-0.521-0.261-1.042-0.13-1.693c0-0.651,0-1.302,0.391-1.953c0.391-0.781,1.692-0.521,1.822,0.261
	C382.283,119.451,382.152,119.972,382.022,120.623z"/>
<path fill="#F38171" d="M390.746,125.701c-0.521,0.521-1.563,0.13-1.432-0.651c0.13-0.781,0.26-1.692,0.65-2.604
	c0.131-0.391,0.391-0.912,0.781-1.042c0.131,0,0.391,0,0.521,0c0.261,0.13,0.521,0.391,0.65,0.651
	C392.179,123.357,391.528,124.79,390.746,125.701z"/>
<path fill="#FFFFFF" d="M371.476,196.404c4.297,8.464,8.333,17.188,11.979,26.042c3.516,8.595,7.031,17.448,7.942,26.693
	c0.391,0.13,0.651,0.391,0.651,0.911c0,1.042,0.26,1.953,0.65,2.865c0.131,0.26,0.131,0.65,0,0.911
	c-0.26,0.521-1.041,0.781-1.563,0.391c-0.911,0.781-2.604,0.521-2.734-1.042c-0.391-18.75-11.588-38.411-19.661-54.948
	C367.699,196.274,370.564,194.451,371.476,196.404z"/>
<path fill="#FFFFFF" d="M388.272,232.994c2.604-4.428,15.365-2.084,19.662-1.693c7.161,0.651,16.797,0.911,22.786,5.469
	c6.511,5.078,11.459,11.979,15.886,18.881c4.558,6.9,10.417,14.974,9.766,23.567c-0.13,1.563-2.083,1.563-2.344,0.131
	c-2.214-13.673-12.761-28.126-22.526-37.631c-5.208-5.078-11.979-5.339-18.75-6.25c-7.682-1.042-14.844-1.172-22.526-0.261
	c-0.13,0-0.26,0-0.391,0h-0.13c-0.13,0-0.13,0-0.261,0c-0.13,0-0.13,0-0.26,0C388.272,235.077,387.752,233.775,388.272,232.994z"/>
<path fill="#FFFFFF" d="M351.163,249.66c5.338-0.391,10.677,1.303,15.755,2.344c5.99,1.303,11.979,2.344,18.1,3.256
	c9.766,1.432,18.62,1.822,26.563,8.463c7.813,6.511,12.631,17.318,17.058,26.303c3.646,7.422,8.724,16.537,4.688,24.609
	c-0.521,1.042-1.953,0.391-1.692-0.65c1.822-10.287-4.688-20.313-9.375-29.037c-4.558-8.464-9.506-17.317-17.97-22.266
	c-7.813-4.428-19.141-3.906-27.734-5.339c-8.203-1.433-18.229-2.474-25.521-6.641C350.382,250.441,350.642,249.66,351.163,249.66z"
	/>
<path fill="#FFFFFF" d="M225.641,267.63c7.031,10.938,20.053,3.646,28.125-2.475c6.511-4.947,10.678-11.849,14.193-19.011
	c1.172-4.036,3.125-8.072,3.776-12.369c1.041-6.511,0.911-13.281,0.781-19.792c-0.391-13.933-1.563-28.126-0.521-42.058
	c-1.041-5.209-0.13-10.678,0.391-15.886c0.781-7.943,2.214-15.886,3.906-23.698c2.084-9.375,5.99-24.479,15.625-29.037
	c0,0,0,0,0.131,0c-1.823-7.682-1.563-16.276-1.303-23.958c0.261-5.729-0.65-16.537,6.381-18.359
	c5.469-1.432,10.286,5.599,12.63,9.375c3.386,5.338,6.641,10.808,9.636,16.537c-0.13-0.911,0.261-1.692,1.692-1.953
	c1.693-0.26,3.386-0.651,5.078-0.911c0.261-0.521,0.651-0.912,1.172-0.912c2.344-0.13,4.167-1.302,6.381-1.563
	c1.953-0.261,3.775-0.13,5.599,0.391c1.172-0.13,2.214-0.261,3.386-0.261c6.38-0.391,12.891,2.474,18.75,4.427
	c4.428,1.433,9.506,2.995,14.844,4.037c0-0.26,0.131-0.521,0.391-0.521c4.297,0.13,8.334,1.042,12.761,0.912
	c4.817-0.26,9.505-1.563,14.063-2.865c0.13,0,0.261,0,0.391,0c0.781-0.391,1.692-0.781,2.474-1.042c0.391-0.13,0.651,0,0.782,0.26
	c0.65-0.521,1.302-0.911,1.953-1.432c1.041-0.781,2.083,0.781,1.432,1.693c-8.203,10.286-26.563,8.073-37.891,5.729
	c-8.073-1.693-15.625-4.818-23.568-6.901c-8.724-2.214-18.75,1.042-27.474,2.604c-0.651,0.26-1.303,0-1.823-0.391
	c2.474,4.557,4.688,9.115,6.901,13.672c0.521,1.042-0.912,1.953-1.563,0.912c-3.516-5.99-6.901-11.979-10.287-17.969
	c-3.646-6.38-6.9-13.542-12.109-18.75c-5.859-1.693-8.724-0.521-8.594,3.776c-0.261,2.344-0.521,4.818-0.781,7.162
	c-0.261,3.386-0.261,6.771-0.261,10.157c0,7.552,1.823,15.104,1.953,22.526c0,0.781-0.911,0.912-1.302,0.261
	c-0.781-1.823-1.433-3.907-1.953-5.86c-1.042,4.037-4.427,7.422-6.511,11.068c-3.385,5.599-4.688,11.979-6.25,18.229
	c-1.433,6.12-2.474,12.24-3.255,18.36c-0.912,6.901-0.391,14.453-2.475,21.094c0,0.13-0.13,0.13-0.13,0.261
	c1.953,14.974,1.692,30.469,1.953,45.573c0.13,8.594,0.521,23.698-5.989,30.859c-3.516,9.896-11.719,17.969-20.703,23.047
	c-6.25,3.516-24.871,8.595-24.74-4.166C223.818,267.239,225.12,266.849,225.641,267.63z"/>
<path fill="#FFFFFF" d="M198.297,263.854c1.302-1.172,2.604-1.172,4.036-0.912c0.651-0.65,1.563-0.781,2.604-1.041
	c2.995-0.521,6.12-1.433,9.245-1.563c0.13,0,0.261,0,0.391,0.13c4.037-1.823,7.813-3.906,11.589-5.989
	c3.385-1.823,5.859-4.037,7.943-6.641l-0.13,0.13c-0.521,0.391-1.432-0.13-1.172-0.781c1.823-5.599,6.12-10.547,8.463-16.016
	c2.995-7.031,3.646-14.714,4.688-22.136c1.303-8.464,2.214-17.058,2.865-25.521c0-0.65,0-1.432,0-2.213
	c-0.521-0.131-0.912-0.521-0.912-1.042c-1.563-17.839,2.604-35.678,10.026-51.824c6.12-13.542,17.318-28.516,31.12-34.896
	c0.781-0.391,1.433,0.781,0.911,1.302c-5.208,4.948-10.938,9.245-15.885,14.453c-5.729,5.859-9.767,13.281-13.151,20.703
	c-3.256,7.032-6.25,14.323-7.553,21.875c-1.953,11.328-1.302,22.656-1.822,34.115c-0.131,2.734-0.391,5.469-0.651,8.203
	c-0.781,7.682-1.692,15.364-2.734,22.917c-0.781,6.25-2.734,14.323-6.12,20.964c-2.213,7.161-6.12,13.411-12.37,17.708
	c-7.943,5.469-19.141,10.938-28.907,10.808c-0.911,0-1.432-0.781-1.302-1.433c-0.261,0-0.521,0-0.781-0.13
	C198.167,265.155,197.906,264.244,198.297,263.854z"/>
<path fill="#FFFFFF" d="M167.177,237.551c0.13,0,0.391,0,0.521,0c0.912-0.781,2.604,0.261,1.823,1.433
	c-2.214,3.906-5.99,7.683-0.782,13.021c3.125,3.256,7.162,4.298,11.458,4.298c5.469,0,11.719-1.693,17.058-3.125
	c9.636-2.604,16.797-15.104,20.703-24.61c-0.26-0.26-0.521-0.65-0.391-1.172c2.344-10.156,5.729-19.922,7.683-30.208
	c1.302-7.162,2.344-14.454,3.385-21.745c-0.13-0.131-0.26-0.391-0.26-0.651c-0.912-9.896,3.125-20.964,5.859-30.339
	c2.604-9.115,6.771-17.318,12.24-25c9.766-13.412,24.609-29.818,42.058-31.771c1.302-0.13,1.692,1.953,0.391,2.214
	c-17.318,3.516-29.818,18.229-40.104,31.771c-5.86,7.813-9.375,16.797-12.11,26.042c-2.344,7.683-3.125,16.017-5.208,23.829
	c-0.521,7.942-1.563,16.016-2.734,23.958c-1.432,9.636-2.995,21.094-7.292,30.079c-1.953,7.813-5.599,14.583-10.677,20.833
	c-6.511,7.943-13.021,10.156-22.787,12.109c-8.203,1.693-14.583,1.172-21.224-4.166c-4.297-3.517-4.297-8.334-2.214-12.501
	c-6.12,4.167-6.901,13.282-6.12,20.313c0.911,8.854,6.38,15.234,13.802,19.661c6.901,4.167,14.063,3.646,21.615,5.6
	c4.948,1.302,9.375,0.781,14.323-0.261c2.474-0.521,3.125-0.13,5.339,0.651c1.042,0.391,0.521,1.822-0.391,1.953
	c-4.558,0.26-8.984,2.474-13.542,1.953c-1.302-0.131-2.604-0.391-3.906-0.521c-2.213,0.781-4.427,1.042-6.641,0.912
	c-1.432,0-3.906-0.391-4.688-1.823c-0.261-0.13-0.391-0.13-0.651-0.261c-0.26,0-0.26-0.391,0-0.391
	c0.261-0.13,0.391-0.13,0.521-0.26c0,0,0-0.131,0.13-0.131c-0.781-0.13-1.563-0.13-2.214-0.13
	c-6.901-0.261-16.016-6.12-20.182-11.458C153.374,267.108,150.51,241.848,167.177,237.551z"/>
<path fill="#FFFFFF" d="M98.556,341.849c6.38,0.131,11.588-1.692,16.406-4.688c-0.13-0.13-0.13-0.391,0-0.521
	c1.042-1.302,2.213-2.083,3.516-2.995c1.563-1.172,2.995-2.734,4.167-4.166c0.651-0.781,1.563-0.131,1.693,0.65
	c2.734-2.344,5.339-4.817,7.943-7.161c0.912-0.781,1.823-1.563,2.734-2.344c-0.521,0-0.912-0.391-0.651-0.912
	c5.99-10.677,18.62-12.369,30.599-10.156c3.386,0.261,6.641,1.303,9.896,2.475c0.26,0.13,0.521,0.26,0.521,0.521
	c3.516,1.302,6.641,2.864,9.245,4.558c0.651,0.391,0.391,1.563-0.521,1.432c-7.161-2.083-13.932-4.688-21.354-6.119
	c-2.734-0.521-5.469-0.781-8.073-0.781c-11.979,2.864-21.484,14.583-30.469,22.396c-6.901,5.99-13.672,10.156-22.656,10.808
	c6.641,6.771,13.542,11.459,23.958,8.203c1.042-0.391,1.563,0.651,1.302,1.433c0.391-0.911,0.781-1.823,1.172-2.604
	c3.385-7.683,7.682-16.146,13.412-22.266c9.115-9.766,27.214-14.453,38.933-6.641c0.781,0.521,0.391,1.822-0.651,1.563
	c-7.292-1.563-13.542-3.256-21.094-1.693c-6.51,1.303-12.24,5.339-16.667,10.157c-4.558,4.947-7.162,12.109-10.417,17.969
	c-3.516,6.25-3.646,13.151-6.25,19.531c-0.391,16.537,3.255,33.334,5.469,49.61c1.693,12.109,3.516,28.776-7.422,37.5
	c-0.521,0.391-1.042-0.261-0.912-0.781c2.734-7.161,6.38-12.891,6.901-20.834c0.521-7.813-1.563-16.146-2.604-23.828
	c-1.953-14.192-5.599-29.297-3.255-43.62c-0.13-4.688,1.563-9.505,3.386-13.933c-0.13,0.261-0.26,0.391-0.651,0.521
	c-6.38,2.864-11.979,2.083-17.057-0.651c0,0.521-0.651,1.042-1.172,0.781c-1.823-1.172-4.167-2.214-5.339-4.167
	c-0.13-0.261,0.13-0.651,0.391-0.651c0.13,0,0.261,0,0.391,0.131c-2.083-1.823-4.167-3.776-5.989-5.99
	C96.863,343.542,97.124,341.849,98.556,341.849z"/>
<path fill="#FFFFFF" d="M86.316,453.96c1.302-5.209,2.864-13.412,8.073-16.406c3.776-2.084,8.333-3.256,11.328,0.391
	c0.261,0.26-0.13,0.781-0.521,0.65c-12.5-3.125-14.714,9.245-17.058,18.49c-2.604,10.677-2.865,22.786,7.162,29.427
	c0.911,0.651,0.521,2.214-0.651,1.823C80.717,485.21,83.842,463.986,86.316,453.96z"/>
<path fill="#FFFFFF" d="M165.354,416.98c0.651-13.412,2.214-28.256,11.849-38.412c0.651-0.781,2.083,0.13,1.563,1.041
	c-8.594,12.631-9.635,27.605-10.417,42.449c-0.391,7.031,0,14.192,0.521,21.224c0.521,6.381,2.734,13.281,0.651,19.531
	c-0.391,1.042-2.214,1.172-2.214-0.26c0.261-7.292-1.042-14.453-1.693-21.876C164.833,432.865,164.963,424.923,165.354,416.98z"/>
<path fill="#FFFFFF" d="M258.714,425.313c0-0.391,0.13-0.651,0.521-1.042c9.506-8.594,17.058-18.75,22.526-30.339
	c5.859-12.5,3.516-30.729-1.172-43.229c-0.391-1.041,1.172-1.432,1.693-0.521c5.729,12.37,8.072,29.948,3.385,42.969
	c-4.688,12.761-14.063,24.35-24.089,33.204c-0.26,0.26-0.521,0.391-0.781,0.391c1.563,9.635,6.381,18.099,10.417,26.823
	c3.776,8.203,5.6,16.797,6.641,25.651c0.261,1.822-2.474,1.822-2.734,0.13c-1.692-11.198-4.427-20.703-9.375-30.859
	c-3.386-7.162-6.38-14.193-7.292-22.136C258.063,425.834,258.323,425.443,258.714,425.313z"/>
<path fill="#FFFFFF" d="M318.61,405.651c10.547,16.017,22.656,33.595,26.172,52.865c0.261,1.693-2.213,2.604-2.604,0.781
	c-4.428-19.531-16.017-35.286-25.651-52.344C315.746,405.521,317.699,404.22,318.61,405.651z"/>
<path fill="#FFFFFF" d="M182.15,327.396c-1.042,1.042-2.864-0.26-2.083-1.563c1.302-1.953,2.734-3.646,4.297-5.338
	c0.391-1.563,1.563-2.995,3.255-2.734c6.641-5.078,14.975-8.464,22.396-11.979c5.859-2.734,11.719-5.6,17.578-8.203
	c0.781-0.391,1.693-0.651,2.474-1.042c0,0,0-0.13,0.13-0.13c0.781-0.912,1.692-1.303,2.734-1.693
	c0.651-0.26,2.083-0.521,2.734-1.041c-0.13-0.391,0.13-0.912,0.651-0.912c0.391,0,0.521,0.131,0.912,0.261
	c0.26,0.13,0.391,0.261,0.391,0.521c3.646-1.953,6.901-4.817,10.547-6.9c0.521-0.261,1.042,0.391,0.651,0.781
	c-17.579,16.406-43.751,19.791-61.85,35.417c-1.823,4.557-4.167,8.984-5.469,13.802c-2.213,8.725-2.344,17.709-0.781,26.433
	c2.213,12.239,5.859,24.609,7.813,36.979c4.297,10.156,8.594,20.703,11.589,31.25c0.391,1.563-1.823,2.214-2.344,0.781
	c-3.255-7.552-5.99-15.494-8.464-23.438c-0.521,0.651-1.823,0.521-2.213-0.521c-5.729-14.453-7.422-31.511-10.026-46.745
	C174.989,349.922,177.072,337.813,182.15,327.396z"/>
<path fill="#F79F8E" d="M342.569,93.019c6.119,0.13,12.109,2.604,18.099,3.646c8.594,1.693,16.797,1.302,25.391,0.781
	c1.042,0,1.303,1.433,0.261,1.693c-6.901,2.083-14.063,1.823-21.094,1.042c-7.422-0.781-16.537-1.953-22.917-5.729
	C341.527,94.19,341.657,93.019,342.569,93.019z"/>
<path fill="#F79F8E" d="M290.354,157.862c-0.521-10.808-1.302-21.875,0.131-32.682c0.13-0.781,1.302-0.651,1.433,0.13
	c1.302,10.677,1.041,21.615,1.563,32.422c0.521,9.766,2.344,20.053,1.432,29.818c-0.13,0.781-1.302,0.781-1.432,0
	C290.615,178.176,290.876,167.498,290.354,157.862z"/>
<path fill="#F79F8E" d="M291.136,220.884c2.214-7.813,2.475-15.755,2.734-23.698c0-0.781,1.042-0.781,1.173,0
	c2.083,12.24-0.131,28.646-6.901,39.324c-0.261,0.391-0.912,0.26-0.912-0.261C287.49,230.91,289.704,225.963,291.136,220.884z"/>
<path fill="#F79F8E" d="M268.74,265.807c7.292-6.381,11.067-14.714,15.364-23.178c0.391-0.911,1.953-0.391,1.563,0.651
	c-1.692,5.599-4.427,10.677-7.291,15.755c-1.823,3.256-4.688,8.725-8.985,8.334C268.74,267.239,268.089,266.458,268.74,265.807z"/>
<path fill="#F79F8E" d="M255.85,274.921c0.26-0.26,0.391-0.521,0.65-0.781c0.261-0.391,1.042-0.521,1.433-0.65
	c1.042-0.391,1.953-0.912,2.864-1.433c1.042-0.521,1.823,0.781,0.912,1.433c-0.912,0.781-1.823,1.302-2.865,1.822
	c-0.391,0.261-1.041,0.521-1.432,0.521s-0.781-0.261-1.172-0.391S255.719,275.052,255.85,274.921z"/>
<path fill="#F79F8E" d="M280.198,163.332c-0.13-1.693,2.475-1.823,2.604-0.131c0.781,9.506,1.433,18.881,2.214,28.386
	c0.65,8.594,1.563,17.188-1.303,25.392c-0.13,0.521-1.041,0.521-1.041-0.131C283.714,199.14,281.37,181.17,280.198,163.332z"/>
<path fill="#F79F8E" d="M279.157,232.343c0.911-2.083,1.692-4.167,2.344-6.25c0.391-1.303,2.344-0.912,2.083,0.521
	c-0.651,3.516-1.563,8.594-4.817,10.547c-0.261,0.131-0.781,0-0.781-0.391C277.854,235.077,278.506,233.905,279.157,232.343z"/>
<path fill="#F79F8E" d="M151.421,356.433c4.558-5.6,10.808-13.151,18.62-12.761c0.781,0,1.172,1.302,0.261,1.433
	c-7.422,1.822-12.11,7.683-16.797,13.281c-5.469,6.38-5.729,13.802-9.375,20.703c-0.391,0.651-1.302,0.391-1.302-0.261
	C141.916,370.625,146.473,362.553,151.421,356.433z"/>
<path fill="#F79F8E" d="M140.744,350.573c2.604-5.6,6.38-10.678,10.807-14.975c4.558-4.297,10.417-5.859,15.365-9.375
	c0.261-0.261,0.781,0.131,0.521,0.521c-2.474,3.385-6.12,4.817-9.505,7.161c-5.99,4.036-10.417,9.896-13.672,16.276
	c-6.901,13.021-5.208,26.953-7.292,40.886c-0.13,0.521-0.911,0.521-1.042,0C132.671,378.178,135.405,362.683,140.744,350.573z"/>
<path fill="#F79F8E" d="M140.223,433.517c-0.26-9.896-2.865-19.922-3.646-29.818c0-0.65,1.042-0.911,1.172-0.26
	c4.427,18.489,8.073,36.328,0.912,54.688c-0.26,0.521-1.042,0.261-1.042-0.26C137.619,449.663,140.483,441.72,140.223,433.517z"/>
<path fill="#F79F8E" d="M120.431,473.751c4.427-3.775,8.984-7.422,13.281-11.588c0.651-0.651,1.693,0.13,1.302,0.911
	c-2.995,5.339-8.073,9.896-13.933,11.589C120.562,474.793,120.041,474.142,120.431,473.751z"/>
<path fill="#F79F8E" d="M93.738,467.501c2.604,2.214,4.557,4.948,7.552,6.771c3.385,2.083,7.813,2.994,11.719,2.734
	c0.651,0,0.912,1.042,0.26,1.172c-7.292,1.953-19.401-1.563-20.443-10.417C92.696,467.371,93.348,467.11,93.738,467.501z"/>
<path fill="#F79F8E" d="M91.134,454.09c0.13-0.13,0.391-0.261,0.521-0.13c1.042,0.26,1.172,1.432,1.432,2.344
	c0.261,1.172,0.651,2.474,0.781,3.646c0,0.911-1.302,1.433-1.692,0.521c-0.521-1.172-0.912-2.344-1.172-3.516
	C90.874,456.043,90.483,454.871,91.134,454.09z"/>
<path fill="#FFD17E" d="M261.969,152.784c1.433-12.37,3.516-26.823,11.329-36.979c0.26-0.391,1.041,0,0.911,0.521
	c-3.776,12.5-7.422,24.219-8.984,37.24c-1.693,13.282-0.651,27.995-4.167,40.886c-0.261,0.912-1.302,0.651-1.433-0.13
	C257.281,181.17,260.406,166.065,261.969,152.784z"/>
<path fill="#FFD17E" d="M249.99,255.911c1.432-8.073,4.947-15.626,6.51-23.698c1.823-8.854,1.693-17.709,2.084-26.693
	c0-0.781,1.302-1.172,1.432-0.261c1.693,8.334,1.042,16.928-0.13,25.261c-1.172,8.725-3.516,18.881-8.984,26.042
	C250.641,256.952,249.859,256.432,249.99,255.911z"/>
<path fill="#FFD17E" d="M236.839,266.849c0.781-1.563,2.474-2.084,3.776-3.125c1.563-1.172,2.865-2.604,4.167-4.037
	c0.651-0.65,1.433,0.131,1.172,0.781c-0.781,1.953-2.213,3.646-3.776,5.078c-1.432,1.172-2.995,2.604-4.948,2.084
	C236.839,267.63,236.708,267.239,236.839,266.849z"/>
<path fill="#FFD17E" d="M211.838,275.572c0.26-0.13,0.391-0.261,0.651-0.391c0.391-0.13,0.651-0.13,1.042-0.261
	c0.781-0.13,1.692,0.131,2.474,0.261c0.651,0.13,0.781,1.302,0,1.433c-0.781,0.13-1.432,0.26-2.213,0.391
	c-0.391,0-0.781,0.13-1.172,0c-0.391-0.131-0.521-0.391-0.912-0.521C211.578,276.224,211.578,275.702,211.838,275.572z"/>
<path fill="#FFD17E" d="M236.448,256.691c2.083-4.036,5.338-7.552,7.552-11.588c2.214-4.037,3.516-8.464,5.6-12.5
	c0.13-0.261,0.521-0.131,0.65,0.13c0.261,8.333-5.729,20.313-12.76,24.87C236.839,257.994,236.058,257.343,236.448,256.691z"/>
<path fill="#FFD17E" d="M348.688,76.481c3.256-1.823,6.642-1.172,10.287-0.521c4.297,0.781,9.114,1.563,12.891,3.776
	c0.261,0.13,0.13,0.651-0.13,0.651c-3.386,0.261-6.771-0.651-10.156-1.302c-4.167-0.781-8.595-0.781-12.761-1.823
	C348.429,77.133,348.298,76.612,348.688,76.481z"/>
<path fill="#FFD17E" d="M334.626,77.393c0.391-0.391,0.521-0.781,1.042-1.042c0.65-0.261,1.432-0.391,2.083-0.521
	c1.302-0.26,2.734-0.521,4.037-0.521c1.172,0,1.302,1.563,0.391,1.953c-1.303,0.521-2.735,0.912-4.167,1.172
	c-0.651,0.13-1.303,0.261-1.953,0.261c-0.521,0-0.912-0.391-1.303-0.521C334.496,78.044,334.496,77.653,334.626,77.393z"/>
<path fill="#FFD17E" d="M405.851,99.138c1.693-0.26,3.125,0.521,4.688,1.042c1.563,0.521,3.125,1.172,4.558,1.823
	c0.651,0.26,0.391,1.302-0.261,1.302c-2.994-0.13-7.552-0.651-9.505-3.125C405.069,99.659,405.46,99.269,405.851,99.138z"/>
<path fill="#DEA2C8" d="M254.026,121.925c0.521-0.651,1.433,0.13,1.042,0.781c-4.428,8.984-7.683,17.839-9.375,27.734
	c-1.954,11.328-0.521,22.787-2.084,34.115c-0.13,0.521-0.911,0.521-1.042,0C238.271,165.154,241.656,137.94,254.026,121.925z"/>
<path fill="#DEA2C8" d="M238.011,202.265c0.651-2.734,0.911-5.6,1.953-8.073c0.391-0.912,1.692-0.391,1.692,0.391
	c0.13,2.734-0.521,5.599-1.172,8.333c-0.521,2.865-1.172,5.339-2.604,7.813c-0.26,0.521-1.042,0.391-1.042-0.26
	C236.839,207.603,237.359,204.999,238.011,202.265z"/>
<path fill="#DEA2C8" d="M208.713,253.697c2.995-2.475,5.99-4.948,8.724-7.683c2.995-2.995,5.208-6.511,7.422-10.026
	c0.391-0.65,1.563-0.26,1.302,0.521c-2.865,7.813-9.245,15.104-16.927,18.099C208.844,254.608,208.323,253.958,208.713,253.697z"/>
<path fill="#DEA2C8" d="M167.046,261.379c3.255,0.391,6.38,2.865,9.375,4.298c3.776,1.822,7.943,2.734,11.979,4.036
	c0.651,0.13,0.521,1.172-0.13,1.172c-4.427,0-8.724-1.042-12.761-2.604c-3.125-1.172-7.422-2.734-9.115-5.729
	C166.005,261.77,166.525,261.249,167.046,261.379z"/>
<path fill="#DEA2C8" d="M188.01,279.608c1.042-0.391,1.172-0.65,2.213-0.781c1.042-0.13,2.083,0.131,3.125,0.391
	c2.083,0.521,4.167,1.433,5.99,2.604c0.781,0.521,0.13,1.823-0.781,1.433c-1.693-0.781-3.255-1.303-5.078-1.693
	c-0.912-0.13-1.823-0.13-2.865-0.26c-0.912-0.131-1.693-0.521-2.604-0.651C187.489,280.39,187.489,279.739,188.01,279.608z"/>
<path fill="#DEA2C8" d="M168.609,375.443c0.521-0.781,1.563,0.13,1.172,0.911c-3.385,7.553-6.511,14.063-7.162,22.526
	c-0.391,5.859,0.521,11.979-1.302,17.448c-0.26,0.651-1.172,0.651-1.302-0.13C157.801,402.526,160.015,386.511,168.609,375.443z"/>
<path fill="#DEA2C8" d="M154.286,469.194c1.042-5.208,3.255-10.026,4.297-15.234c1.302-5.859,0.912-11.85,0.781-17.709
	c0-0.651,1.042-0.911,1.172-0.261c2.604,10.287,1.433,25.131-5.338,33.595C154.937,470.105,154.286,469.585,154.286,469.194z"/>
<path fill="#DEA2C8" d="M142.176,483.518c1.563-2.214,3.385-4.037,5.338-5.859c1.042-0.912,2.604,0.521,1.563,1.432
	c-2.083,1.823-4.036,3.516-6.51,4.818C142.437,484.038,142.046,483.777,142.176,483.518z"/>
<path fill="#F79F8E" d="M269.781,473.101c0.131-0.781,1.172-0.651,1.433,0c0.651,1.433,0.781,2.995,1.172,4.427
	c0.391,1.172,1.303,2.734,0.521,3.906c-0.131,0.261-0.392,0.391-0.651,0.261c-1.433-0.521-1.563-2.214-1.953-3.516
	C269.912,476.486,269.521,474.793,269.781,473.101z"/>
<path fill="#F79F8E" d="M337.101,450.835c1.432,1.432,2.864,3.255,3.255,5.208c0.261,1.302-1.563,2.474-2.214,1.042
	c-0.781-1.563-1.563-2.995-2.864-4.297C333.976,451.616,335.798,449.663,337.101,450.835z"/>
<path fill="#F79F8E" d="M426.424,303.697c1.433-0.13,1.953,1.303,2.344,2.475c0.651,1.822,1.953,4.427,1.433,6.38
	c-0.13,0.521-0.781,0.651-1.172,0.391c-1.042-0.911-1.172-2.474-1.563-3.646c-0.13-0.391-0.781-4.167-1.042-4.167
	C425.643,304.739,425.643,303.697,426.424,303.697z"/>
<path fill="#F79F8E" d="M447.258,270.233c0.65,1.172,1.041,2.344,1.432,3.516c0.391,1.042,1.303,2.344,0.391,3.386
	c-0.13,0.261-0.391,0.261-0.65,0.261c-1.172-0.261-1.303-1.563-1.693-2.475c-0.391-1.302-0.911-2.604-1.172-3.906
	C445.305,269.974,446.736,269.192,447.258,270.233z"/>
<path fill="#FFFFFF" d="M391.268,54.997c1.563,0,1.692,2.474,0.13,2.474C389.705,57.471,389.574,54.997,391.268,54.997z"/>
<path fill="#FFFFFF" d="M377.335,56.039c2.214-0.13,2.344,3.255,0.13,3.385C375.252,59.554,375.121,56.169,377.335,56.039z"/>
<path fill="#FFFFFF" d="M382.804,67.627h0.13c1.042-0.13,1.042,1.563,0,1.563h-0.13C381.893,69.06,381.893,67.758,382.804,67.627z"
	/>
<path fill="#FFFFFF" d="M399.991,37.81c1.823-0.13,1.953,2.734,0.131,2.864C398.299,40.674,398.169,37.81,399.991,37.81z"/>
<path fill="#FFFFFF" d="M400.643,32.731c0.261-1.172,1.823,0.261,0.651,0.651c-0.131,0-0.261,0.13-0.391,0.13
	c-0.261,0-0.391-0.13-0.391-0.261C400.643,32.992,400.643,32.861,400.643,32.731z"/>
<path fill="#FFFFFF" d="M412.101,19.71c0.391,0.261,0.391,0.781,0,1.042c-0.391,0.521-1.432,0.391-1.563-0.521
	C410.669,19.45,411.58,19.189,412.101,19.71z"/>
<path fill="#FFFFFF" d="M385.668,98.878C385.668,98.878,385.799,98.748,385.668,98.878c0.651-0.521,1.563,0,1.563,0.651
	s-0.781,1.172-1.302,0.912c0,0-0.13,0-0.13-0.13C385.147,99.919,385.147,99.269,385.668,98.878z"/>
<path fill="#FFFFFF" d="M364.705,101.482c0.521,0.13,0.911,0.521,1.041,0.912v0.13c0.391,1.433-1.432,2.734-2.474,1.563
	C362.101,103.044,363.143,101.222,364.705,101.482z"/>
<path fill="#FFFFFF" d="M331.892,92.367C331.892,92.367,332.022,92.367,331.892,92.367c1.042-0.781,2.474,0,2.474,1.172
	c0,1.042-1.172,1.953-2.213,1.432c0,0-0.131,0-0.131-0.13C330.98,94.32,330.98,93.018,331.892,92.367z"/>
<path fill="#FFFFFF" d="M325.642,77.393v-0.13c0-0.391,0.391-0.651,0.651-0.781c0.13,0,0.13,0,0.26-0.13
	c0.912-0.261,1.823,0.911,1.042,1.563l-0.13,0.13c-0.261,0.261-0.651,0.391-1.042,0.261h-0.13
	C325.902,78.305,325.642,77.914,325.642,77.393z"/>
<path fill="#FFFFFF" d="M361.84,77.393c0.651,0,1.172,0.781,0.781,1.302l-0.13,0.13c-0.391,0.521-1.042,0.521-1.302,0l-0.131-0.13
	C360.668,78.174,361.189,77.393,361.84,77.393z"/>
<path fill="#FFFFFF" d="M417.439,104.086c0.131-0.13,0.261-0.26,0.261-0.391c0.521-0.651,1.433-0.13,1.433,0.521
	c0,0.781-0.912,1.172-1.433,0.651c-0.13-0.13-0.261-0.26-0.391-0.391C417.31,104.347,417.31,104.216,417.439,104.086z"/>
<path fill="#FFFFFF" d="M282.933,134.555c-0.26-0.26,0-0.521,0.261-0.13c1.692,2.213,3.776,4.688,4.948,7.031
	c0.26,0.391-0.131,0.651-0.391,0.26C285.798,139.764,284.235,136.899,282.933,134.555z"/>
<path fill="#FFFFFF" d="M281.892,140.675c-0.261,0.261-0.521,0-0.131-0.26c2.214-1.693,4.688-3.776,7.031-4.948
	c0.391-0.261,0.651,0.13,0.261,0.391C287.1,137.68,284.235,139.243,281.892,140.675z"/>
<path fill="#FFFFFF" d="M281.631,137.811c-0.261,0-0.261-0.26,0-0.26c2.344,0.13,5.208,0.13,7.552,0.781
	c0.391,0.13,0.391,0.391,0,0.521C286.839,138.852,283.975,138.201,281.631,137.811z"/>
<path fill="#FFFFFF" d="M285.146,141.978c0,0.26-0.261,0.26-0.261,0c0.131-2.344,0.131-5.208,0.781-7.552
	c0.131-0.391,0.391-0.391,0.521,0C286.188,136.769,285.537,139.503,285.146,141.978z"/>
<path fill="#FFFFFF" d="M351.163,90.544c-0.261-0.26,0-0.521,0.26-0.13c1.693,2.213,3.776,4.688,4.948,7.031
	c0.261,0.391-0.13,0.651-0.391,0.26C354.157,95.752,352.595,92.888,351.163,90.544z"/>
<path fill="#FFFFFF" d="M350.251,96.664c-0.26,0.26-0.521,0-0.13-0.26c2.214-1.693,4.688-3.776,7.031-4.948
	c0.391-0.26,0.651,0.13,0.261,0.391C355.46,93.669,352.595,95.232,350.251,96.664z"/>
<path fill="#FFFFFF" d="M349.991,93.8c-0.261,0-0.261-0.261,0-0.261c2.344,0.13,5.208,0.13,7.552,0.781
	c0.391,0.13,0.391,0.391,0,0.521C355.069,94.841,352.335,94.19,349.991,93.8z"/>
<path fill="#FFFFFF" d="M353.507,97.966c0,0.26-0.261,0.26-0.261,0c0.13-2.344,0.13-5.208,0.781-7.552
	c0.13-0.391,0.391-0.391,0.521,0C354.418,92.758,353.897,95.492,353.507,97.966z"/>
<path fill="#FFFFFF" d="M247.516,275.572c-0.26-0.261,0-0.521,0.261-0.131c1.692,2.214,3.776,4.688,4.948,7.032
	c0.26,0.391-0.131,0.65-0.391,0.26C250.511,280.65,248.948,277.786,247.516,275.572z"/>
<path fill="#FFFFFF" d="M246.604,281.562c-0.261,0.261-0.521,0-0.13-0.26c2.213-1.693,4.688-3.776,7.031-4.948
	c0.391-0.261,0.65,0.13,0.26,0.391C251.813,278.697,248.948,280.26,246.604,281.562z"/>
<path fill="#FFFFFF" d="M246.344,278.827c-0.26,0-0.26-0.26,0-0.26c2.344,0.13,5.209,0.13,7.553,0.781
	c0.391,0.13,0.391,0.391,0,0.521C251.422,279.739,248.688,279.088,246.344,278.827z"/>
<path fill="#FFFFFF" d="M249.859,282.864c0,0.26-0.26,0.26-0.26,0c0.13-2.344,0.13-5.209,0.781-7.553
	c0.13-0.391,0.391-0.391,0.521,0C250.771,277.655,250.25,280.521,249.859,282.864z"/>
<path fill="#FFFFFF" d="M238.922,148.748c-0.26-0.261,0-0.521,0.261-0.131c1.692,2.214,3.776,4.688,4.948,7.031
	c0.26,0.391-0.13,0.651-0.391,0.261C241.787,153.956,240.224,151.092,238.922,148.748z"/>
<path fill="#FFFFFF" d="M237.88,154.868c-0.26,0.26-0.521,0-0.13-0.261c2.214-1.692,4.688-3.776,7.031-4.948
	c0.391-0.261,0.651,0.13,0.261,0.391C243.089,151.873,240.224,153.436,237.88,154.868z"/>
<path fill="#FFFFFF" d="M237.62,152.003c-0.261,0-0.261-0.261,0-0.261c2.344,0.131,5.208,0.131,7.552,0.781
	c0.391,0.131,0.391,0.391,0,0.521C242.828,153.045,239.964,152.394,237.62,152.003z"/>
<path fill="#FFFFFF" d="M241.136,156.17c0,0.26-0.261,0.26-0.261,0c0.13-2.344,0.13-5.209,0.781-7.553
	c0.13-0.391,0.391-0.391,0.521,0C242.177,150.961,241.526,153.826,241.136,156.17z"/>
<path fill="#FFFFFF" d="M177.593,268.021c-0.26-0.261,0-0.521,0.26-0.131c1.693,2.214,3.776,4.688,4.948,7.162
	c0.26,0.391-0.13,0.65-0.391,0.26C180.588,273.229,179.025,270.364,177.593,268.021z"/>
<path fill="#FFFFFF" d="M176.682,274.14c-0.26,0.261-0.521,0-0.13-0.26c2.213-1.693,4.688-3.776,7.161-4.948
	c0.391-0.261,0.651,0.13,0.261,0.391C181.89,271.146,179.025,272.708,176.682,274.14z"/>
<path fill="#FFFFFF" d="M176.291,271.275c-0.391,0-0.26-0.261,0-0.261c2.344,0.131,5.208,0.131,7.552,0.781
	c0.391,0.131,0.391,0.391,0,0.521C181.5,272.317,178.765,271.666,176.291,271.275z"/>
<path fill="#FFFFFF" d="M179.937,275.442c0,0.391-0.26,0.26-0.26,0c0.13-2.344,0.13-5.209,0.781-7.553
	c0.13-0.391,0.391-0.391,0.521,0C180.849,270.233,180.328,272.968,179.937,275.442z"/>
<path fill="#FFFFFF" d="M253.375,217.629c-0.26-0.391,0-0.651,0.391-0.261c2.084,2.865,4.818,6.12,6.511,9.245
	c0.261,0.521-0.13,0.912-0.521,0.391C257.281,224.4,255.328,220.624,253.375,217.629z"/>
<path fill="#FFFFFF" d="M252.203,225.572c-0.391,0.26-0.65,0-0.26-0.391c2.864-2.084,6.119-4.818,9.244-6.511
	c0.521-0.261,0.912,0.13,0.391,0.521C258.975,221.666,255.328,223.749,252.203,225.572z"/>
<path fill="#FFFFFF" d="M251.813,221.926c-0.391-0.13-0.391-0.391,0-0.391c3.125,0.13,6.771,0.261,9.766,0.911
	c0.521,0.131,0.521,0.651-0.13,0.651C258.584,223.098,254.938,222.316,251.813,221.926z"/>
<path fill="#FFFFFF" d="M256.5,227.135c-0.13,0.391-0.391,0.391-0.391,0c0.131-3.125,0.261-6.771,0.912-9.766
	c0.13-0.521,0.65-0.521,0.65,0.13C257.672,220.494,256.891,224.14,256.5,227.135z"/>
<path fill="#FFFFFF" d="M158.322,329.869c-0.26-0.391,0-0.65,0.391-0.26c2.083,2.864,4.818,6.119,6.51,9.244
	c0.261,0.521-0.13,0.912-0.521,0.391C162.229,336.641,160.275,332.864,158.322,329.869z"/>
<path fill="#FFFFFF" d="M157.15,337.813c-0.391,0.261-0.651,0-0.261-0.391c2.865-2.083,6.12-4.818,9.245-6.511
	c0.521-0.261,0.912,0.13,0.391,0.521C163.921,333.906,160.145,335.989,157.15,337.813z"/>
<path fill="#FFFFFF" d="M156.76,334.036c-0.391-0.13-0.391-0.391,0-0.391c3.125,0.131,6.771,0.261,9.766,0.912
	c0.521,0.13,0.521,0.65-0.13,0.65C163.531,335.339,159.885,334.558,156.76,334.036z"/>
<path fill="#FFFFFF" d="M161.447,339.375c-0.13,0.391-0.391,0.391-0.391,0c0.13-3.125,0.26-6.771,0.912-9.766
	c0.13-0.521,0.651-0.521,0.651,0.13C162.619,332.734,161.838,336.38,161.447,339.375z"/>
<path fill="#FFFFFF" d="M139.051,438.204c0-0.521,0.391-0.521,0.391,0c0.521,3.516,1.432,7.683,1.432,11.198
	c0,0.651-0.521,0.651-0.651,0.13C139.312,446.017,139.312,441.72,139.051,438.204z"/>
<path fill="#FFFFFF" d="M134.364,444.715c-0.521,0-0.521-0.391,0-0.391c3.516-0.521,7.682-1.433,11.198-1.433
	c0.651,0,0.651,0.521,0.13,0.651C142.046,444.454,137.879,444.454,134.364,444.715z"/>
<path fill="#FFFFFF" d="M135.666,441.199c-0.391-0.261-0.13-0.521,0.261-0.261c2.604,1.563,5.99,3.386,8.203,5.339
	c0.391,0.391,0.13,0.781-0.391,0.521C141.004,445.496,138.14,443.152,135.666,441.199z"/>
<path fill="#FFFFFF" d="M137.358,448.101c-0.26,0.391-0.521,0.13-0.26-0.261c1.563-2.604,3.385-5.99,5.338-8.203
	c0.391-0.391,0.781-0.131,0.521,0.391C141.525,442.762,139.182,445.626,137.358,448.101z"/>
<path fill="#FFFFFF" d="M160.406,388.725c0-0.521,0.391-0.521,0.391,0c0.521,3.516,1.432,7.683,1.432,11.198
	c0,0.65-0.521,0.65-0.651,0.13C160.666,396.537,160.666,392.24,160.406,388.725z"/>
<path fill="#FFFFFF" d="M155.588,395.235c-0.521,0-0.521-0.391,0-0.391c3.516-0.521,7.682-1.433,11.198-1.433
	c0.651,0,0.651,0.521,0.13,0.651C163.4,394.845,159.104,394.975,155.588,395.235z"/>
<path fill="#FFFFFF" d="M157.02,391.72c-0.391-0.261-0.13-0.521,0.26-0.261c2.604,1.563,5.99,3.386,8.204,5.339
	c0.391,0.391,0.13,0.781-0.391,0.521C162.359,395.886,159.494,393.542,157.02,391.72z"/>
<path fill="#FFFFFF" d="M158.583,398.49c-0.26,0.391-0.521,0.131-0.26-0.26c1.563-2.604,3.385-5.99,5.338-8.204
	c0.391-0.391,0.781-0.13,0.521,0.391C162.879,393.151,160.536,396.017,158.583,398.49z"/>
<path fill="#FFFFFF" d="M122.254,341.85c0-0.391,0.261-0.521,0.391,0c0.521,3.125,1.302,6.771,1.302,9.896
	c0,0.521-0.521,0.651-0.651,0.13C122.515,348.75,122.384,344.975,122.254,341.85z"/>
<path fill="#FFFFFF" d="M118.087,347.578c-0.391,0-0.521-0.26,0-0.391c3.125-0.521,6.771-1.302,9.896-1.302
	c0.521,0,0.651,0.521,0.13,0.651C124.988,347.318,121.212,347.318,118.087,347.578z"/>
<path fill="#FFFFFF" d="M119.259,344.453c-0.26-0.26-0.13-0.521,0.13-0.26c2.344,1.432,5.208,2.994,7.292,4.817
	c0.391,0.261,0.13,0.651-0.26,0.391C123.947,348.229,121.473,346.146,119.259,344.453z"/>
<path fill="#FFFFFF" d="M120.691,350.573c-0.26,0.261-0.521,0.13-0.26-0.13c1.432-2.344,2.995-5.209,4.818-7.292
	c0.26-0.391,0.651-0.13,0.391,0.261C124.468,345.756,122.384,348.359,120.691,350.573z"/>
<path fill="#FFFFFF" d="M408.064,99.529c-0.13-0.26,0-0.391,0.261-0.13c1.302,1.693,2.994,3.646,3.906,5.599
	c0.13,0.391-0.131,0.521-0.391,0.26C410.408,103.565,409.106,101.352,408.064,99.529z"/>
<path fill="#FFFFFF" d="M407.283,104.347c-0.261,0.13-0.391,0-0.13-0.261c1.692-1.302,3.646-2.995,5.599-3.906
	c0.391-0.13,0.521,0.13,0.261,0.391C411.45,102.003,409.106,103.175,407.283,104.347z"/>
<path fill="#FFFFFF" d="M407.022,102.003c-0.26,0-0.26-0.261,0-0.261c1.823,0.13,4.167,0.13,5.99,0.521
	c0.26,0.13,0.26,0.391,0,0.391C411.189,102.784,408.976,102.394,407.022,102.003z"/>
<path fill="#FFFFFF" d="M409.888,105.258c0,0.261-0.261,0.261-0.261,0c0.13-1.823,0.13-4.167,0.521-5.99
	c0.131-0.26,0.391-0.26,0.391,0C410.669,101.221,410.147,103.435,409.888,105.258z"/>
<path fill="#FFFFFF" d="M274.729,112.55c1.823-0.13,1.953,2.734,0.131,2.734C273.037,115.284,272.907,112.55,274.729,112.55z"/>
<path fill="#FFFFFF" d="M290.745,150.571c1.172-1.172,2.475,1.172,1.042,1.563C290.876,152.264,290.095,151.353,290.745,150.571z"/>
<path fill="#FFFFFF" d="M279.938,176.613c2.344-0.131,2.474,3.516,0.13,3.516C277.725,180.259,277.595,176.743,279.938,176.613z"/>
<path fill="#FFFFFF" d="M284.235,227.395c0.65-0.781,1.692-0.26,1.822,0.521c0,0.781-1.041,1.432-1.692,0.781c0,0,0,0-0.13-0.131
	C283.975,228.307,283.845,227.785,284.235,227.395z"/>
<path fill="#FFFFFF" d="M249.729,233.905c2.214-0.13,2.344,3.386,0.13,3.516C247.646,237.421,247.516,233.905,249.729,233.905z"/>
<path fill="#FFFFFF" d="M214.833,278.307c1.823-0.13,1.953,2.734,0.13,2.864C213.141,281.302,213.01,278.437,214.833,278.307z"/>
<path fill="#FFFFFF" d="M264.053,199.79c2.474-0.13,2.604,3.646,0.13,3.776C261.839,203.566,261.709,199.92,264.053,199.79z"/>
<path fill="#FFFFFF" d="M262.1,145.492h0.13c0.911,0,1.433,1.042,0.781,1.823c-0.651,0.651-1.823,0.261-1.823-0.651v-0.13
	C261.188,146.014,261.578,145.492,262.1,145.492z"/>
<path fill="#FFFFFF" d="M257.933,117.889C258.193,118.019,258.584,118.149,257.933,117.889c1.042,0.391,1.172,1.432,0.391,2.083
	c-0.521,0.391-1.302,0.391-1.823-0.13C255.459,118.93,256.761,117.237,257.933,117.889z"/>
<path fill="#FFFFFF" d="M239.313,169.973c2.083-0.131,2.214,3.125,0.13,3.255S237.229,170.103,239.313,169.973z"/>
<path fill="#FFFFFF" d="M233.974,229.608c1.172,0,1.563,1.042,1.302,1.953c0,0,0,0.13-0.13,0.13
	c-0.391,0.781-1.823,0.912-2.213,0.131c0,0,0-0.131-0.13-0.131C232.412,230.78,232.802,229.738,233.974,229.608z"/>
<path fill="#FFFFFF" d="M168.088,266.067c2.474-0.131,2.604,3.646,0.13,3.775C165.875,269.974,165.744,266.197,168.088,266.067z"/>
<path fill="#FBC3B0" d="M478.378,177.395c-2.995,3.646-8.334,8.203-16.406,8.594c-12.24,0.781-23.178-2.995-29.818-5.339
	c-2.344-0.781-4.167-1.433-5.599-1.692c-2.214-0.391-5.209,1.172-10.156,3.906c-8.854,4.688-22.137,11.849-38.934,11.719
	c-24.869-0.131-35.938-17.578-36.067-17.709c-0.391-0.65-1.303-0.911-1.953-0.391c-0.651,0.391-0.912,1.303-0.391,1.953
	c0.13,0.261,1.822,2.865,5.208,6.12c-13.411-10.677-20.834-28.256-15.104-26.563c17.058,4.947,43.36,23.828,79.168,11.589
	c27.214-9.376,26.042-11.459,37.5-3.517c8.203,5.729,23.828,10.026,36.198,6.12C480.852,174.009,479.68,175.701,478.378,177.395z"/>
<path fill="#FBC3B0" d="M252.203,286.51c26.303-5.859,44.402-35.547,49.61-81.511c4.036-35.418-3.255-77.736-5.859-91.147
	c0,0.13,0.13,0.13,0.13,0.261c0.261,0.391,0.781,0.651,1.303,0.651c0.26,0,0.521-0.13,0.65-0.26
	c0.651-0.391,0.912-1.302,0.521-1.953c-0.391-0.521-0.651-1.172-1.042-1.823c4.297,1.693,11.328,4.427,16.536,2.865
	c5.078-1.563,9.115-5.99,10.678-10.938c0.13,0.26,0.26,0.651,0.391,0.912c0.26,0.651,1.041,1.042,1.822,0.781
	c0.651-0.261,0.912-0.912,0.781-1.433c5.859,3.255,19.532,9.245,38.803,8.594c2.475-0.13,5.078-0.26,7.683-0.651
	c8.073-1.042,14.583-3.516,20.052-6.51l0.131,0.13c8.333,5.339,15.886,6.901,22.526,6.641c0.781,0,1.563-0.13,2.344-0.13
	c0,0-15.365,4.817-26.693,1.042c0,0-22.526,10.547-42.188,6.51c-19.662-4.167-26.954,5.86-35.548,18.1
	c-8.594,12.109,10.678,60.156-2.864,106.642c-10.026,34.245-44.142,44.792-66.146,46.225
	C248.297,288.463,250.381,287.421,252.203,286.51z"/>
<path fill="#FFFFFF" d="M158.713,349.922c2.344-0.13,2.474,3.516,0.13,3.646C156.5,353.698,156.369,350.052,158.713,349.922z"/>
<path fill="#FFFFFF" d="M132.02,382.604c0-0.13,0.13-0.13,0.13-0.261c0.521-0.781,1.302-1.302,2.344-1.041
	c1.042,0.26,1.823,1.432,1.563,2.474v0.261c-0.13,0.65-0.651,1.302-1.433,1.563h-0.13c-0.781,0.13-1.823,0-2.213-0.781
	c0,0,0-0.131-0.13-0.131C131.89,384.037,131.629,383.125,132.02,382.604z"/>
<path fill="#FFFFFF" d="M161.057,436.121c1.042,0,1.823,1.172,1.302,2.083c-0.13,0.261-0.391,0.651-0.521,0.781
	c-0.391,0.391-0.781,0.391-1.172,0c-0.26-0.26-0.391-0.521-0.651-0.781C159.364,437.423,160.015,436.121,161.057,436.121z"/>
<path fill="#FFFFFF" d="M144.52,479.351c0.781-0.911,2.083-0.911,2.995-0.13c0.912,0.911,0.912,2.734-0.26,3.385
	c-0.781,0.391-1.302,0.391-2.083,0.131C143.869,482.085,143.608,480.262,144.52,479.351z"/>
<path fill="#FFFFFF" d="M91.524,460.34c1.042,0,1.823,0.911,1.693,1.953c-0.13,0.521-0.26,0.781-0.521,1.172
	c-0.391,0.521-1.432,0.521-1.823,0.13s-0.521-0.781-0.651-1.172C89.702,461.382,90.483,460.34,91.524,460.34z"/>
<path fill="#FFFFFF" d="M116.525,480.132c0.26-0.911,1.042-1.563,1.953-1.692c1.042,0,1.693,0.65,2.083,1.432
	s-0.13,1.953-0.912,2.344C118.087,483.387,116.134,481.955,116.525,480.132z"/>
<path fill="#FFFFFF" d="M145.562,427.527c1.172-1.303,2.995,1.041,1.563,1.822C145.952,430.001,144.52,428.568,145.562,427.527z"/>
<path fill="#FFFFFF" d="M130.587,330.391c2.604-0.13,2.734,3.906,0.13,3.906C128.244,334.427,128.114,330.521,130.587,330.391z"/>
<path fill="#FFFFFF" d="M155.458,312.813c0.912,0,1.172,0.911,0.781,1.563c-0.13,0.13-0.13,0.13-0.26,0.26
	c-0.261,0.261-0.651,0.261-0.912,0c-0.13-0.13-0.13-0.13-0.26-0.26C154.416,313.854,154.676,312.942,155.458,312.813z"/>
<path fill="#FFFFFF" d="M172.775,326.224c2.344-0.13,2.474,3.516,0.13,3.516C170.562,329.87,170.432,326.354,172.775,326.224z"/>
<path fill="#C74939" d="M301.293,78.565c5.859,5.339,8.984,19.401,9.766,24.219c-4.167-0.391-7.292-1.823-9.115-4.558
	C297.907,92.498,300.121,82.602,301.293,78.565z M299.73,99.789c2.604,3.776,7.031,5.729,13.021,5.859
	c0.391,0,0.781-0.13,1.042-0.521c0.26-0.261,0.391-0.781,0.26-1.172c-0.13-0.912-3.646-23.438-12.891-28.907
	c-0.391-0.26-0.781-0.26-1.172-0.13c-0.391,0.13-0.65,0.391-0.781,0.781C298.949,76.481,293.74,91.195,299.73,99.789z"/>
<path fill="#C74939" d="M90.874,443.413c3.125-5.078,6.38-7.553,9.636-7.683c1.953,0,3.646,0.911,5.078,1.953
	c-2.213,0-4.037,1.172-5.339,3.255c-3.776,6.12-1.823,20.313,4.948,25.001c2.865,1.953,8.984,3.775,17.057-6.901
	c10.808-14.193,7.943-31.381,4.818-49.61c-3.125-18.88-6.771-40.234,3.646-62.5c6.901-14.714,15.625-23.568,26.042-26.563
	c10.938-3.125,20.573,1.433,23.698,3.125c-4.297,7.422-6.38,18.229-5.99,31.12c-5.469,0.131-10.677,2.734-15.104,7.813
	c-10.026,11.459-14.453,33.464-11.068,54.559c2.995,18.359,5.469,61.979-35.026,70.964c-11.328,2.474-19.792,0.391-24.479-6.25
	C81.889,471.799,84.233,453.829,90.874,443.413z M119.39,489.116c36.979-12.109,34.505-54.428,31.641-72.657
	c-3.255-20.442,0.912-41.406,10.417-52.344c3.906-4.428,8.464-6.771,13.151-6.771c0.391,6.771,1.302,14.063,2.995,21.745
	c-0.13,0.131-0.26,0.261-0.391,0.521c-0.13,0.261-14.323,27.996-8.724,65.887c2.083,13.672-1.692,25.261-10.807,33.334
	C148.036,487.163,132.931,491.199,119.39,489.116z M188.271,318.542c9.636-7.553,29.167-16.146,44.922-23.178
	c7.682-3.386,14.323-6.38,19.01-8.724c26.303-5.859,44.402-35.548,49.61-81.512c4.036-35.417-3.255-77.735-5.859-91.147
	c0,0.13,0.13,0.13,0.13,0.261c0.261,0.391,0.781,0.651,1.303,0.651c0.26,0,0.521-0.13,0.65-0.26
	c0.651-0.391,0.912-1.302,0.521-1.953c-8.204-13.412-9.376-40.886-4.037-49.35c1.693-2.604,3.256-2.474,3.776-2.344
	c5.339,0.521,12.891,12.76,18.75,24.74c0,0.261,0,0.521,0.261,0.781c0.13,0.13,0.26,0.261,0.391,0.391
	c3.255,6.511,5.859,12.761,7.552,16.797c0.261,0.651,1.042,1.042,1.823,0.781c0.65-0.26,0.911-0.911,0.781-1.432
	c5.859,3.255,19.531,9.245,38.803,8.594c2.474-0.13,5.078-0.26,7.682-0.651c8.073-1.042,14.584-3.516,20.053-6.511l0.13,0.13
	c8.334,5.339,15.886,6.901,22.526,6.641c0.781,0,1.563-0.13,2.344-0.13c0.131,0.521,0.391,0.911,0.912,1.042
	c1.041,0.391,25.521,8.984,39.323,8.073c0.13,0,0.26,0,0.39,0c12.631-0.521,23.048,19.141,25.001,33.594
	c1.172,8.203-1.302,17.188-6.511,23.438c-2.995,3.646-8.333,8.203-16.406,8.594c-12.24,0.781-23.178-2.994-29.818-5.338
	c-2.344-0.781-4.166-1.433-5.599-1.693c-2.214-0.391-5.208,1.172-10.156,3.906c-8.854,4.688-22.136,11.85-38.933,11.72
	c-24.87-0.131-35.938-17.579-36.068-17.709c-0.391-0.651-1.302-0.911-1.953-0.391c-0.651,0.391-0.911,1.302-0.391,1.953
	c0.391,0.651,10.156,15.886,31.901,18.62c1.433,2.995,19.662,43.229,21.354,56.901c-22.136,0.521-42.709-6.25-42.839-6.25
	c-0.781-0.261-1.563,0.13-1.823,0.911s0.13,1.563,0.912,1.823c0.26,0.13,22.135,7.292,45.313,6.38
	c6.38-0.26,12.891,3.256,19.531,10.287c1.693,1.823,3.386,3.776,4.818,5.729c0.13,0.26,0.26,0.391,0.521,0.65
	c4.688,6.381,8.594,13.673,11.328,19.923c-2.083,1.432-17.448,11.979-23.698,19.141c-0.521-0.521-1.042-0.912-1.433-1.433
	c-6.9-6.511-13.281-12.63-17.969-11.979c-1.563,0.261-3.646,0.781-6.25,1.563c-10.677,2.995-28.516,8.073-45.053-2.083
	c-0.65-0.391-1.563-0.261-1.953,0.521c-0.391,0.651-0.26,1.563,0.521,1.953c17.448,10.678,36.849,5.209,47.266,2.344
	c1.563-0.391,2.995-0.781,4.167-1.041c-0.781,6.25-4.037,27.995-17.058,51.042c-9.245,16.406-24.609,35.547-50.001,49.74
	c-0.13,0-0.391,0.13-0.521,0.26c-0.13,0.131-0.13,0.131-0.261,0.261c-12.76,7.031-28.125,12.761-46.354,16.146
	c3.906-4.688,8.594-11.719,13.933-23.568c4.297-9.505,7.422-25.131-2.474-46.094c-0.261-0.391-0.391-0.781-0.391-0.912
	c-0.261-0.65-1.042-1.172-1.693-0.911c-0.781,0.261-1.172,0.911-0.911,1.692c0.13,0.261,0.261,0.521,0.521,1.303
	c9.376,19.922,6.511,34.766,2.344,43.75c-9.114,20.183-16.276,26.172-20.442,29.818c-0.391,0.391-0.781,0.65-1.172,1.041
	c-2.475,2.214,0.26,8.464,5.989,21.225c1.953,4.167,4.037,8.984,5.859,13.542c-0.13,0.13-0.391,0.26-0.391,0.391
	c-0.13,0.26-15.625,19.401-27.083,23.308c-16.016-13.151-45.574-45.053-57.553-78.647
	C173.557,365.417,173.817,329.739,188.271,318.542z M248.037,485.991c10.677-4.688,23.177-19.271,26.042-22.786
	c2.344,6.25,3.646,11.849,2.344,14.322c-4.948,9.245-13.021,14.063-21.225,12.761C253.766,490.027,251.292,488.465,248.037,485.991z
	 M280.72,420.235c14.323-3.386,26.823-8.333,37.5-14.192c5.208,8.072,14.844,23.828,20.703,35.417
	c-1.432,1.041-17.969,13.15-26.953,15.625c0,0-0.13,0-0.13,0.13C301.032,445.887,285.667,426.746,280.72,420.235z M314.053,459.429
	c9.245-3.125,23.308-13.281,26.303-15.365c2.214,4.688,3.646,8.464,3.646,10.417c0,2.734-1.822,5.469-5.078,7.683
	c-5.078,3.516-12.761,5.208-17.058,3.776C320.303,465.418,317.438,462.944,314.053,459.429z M418.352,320.886
	c-2.084,0.13-5.99-3.125-10.026-6.771c5.469-6.38,19.531-16.146,22.786-18.489c2.344,5.729,3.516,10.416,3.256,12.5
	C433.716,316.198,424.602,320.755,418.352,320.886z M428.638,278.958c-0.391-0.391-0.651-0.781-1.042-1.172
	c10.026-4.297,20.964-17.188,21.484-17.709c0,0,0-0.13,0.131-0.13c4.036,7.161,6.511,13.542,6.12,16.276
	c-0.781,6.12-12.11,12.109-16.798,12.109C436.189,288.072,432.023,282.994,428.638,278.958z M447.908,257.733
	c-0.391,0-0.65,0.131-0.911,0.521c-0.13,0.13-11.719,13.672-21.224,17.317c-1.823-2.083-3.516-3.776-5.078-4.558
	c-1.693-2.213-3.386-4.297-5.209-6.25c-6.771-7.161-13.672-10.938-20.313-11.067c-0.521-4.818-2.995-12.761-6.12-21.094
	c4.558-0.521,28.776-3.256,39.975,3.255C435.539,239.765,442.7,249.01,447.908,257.733z M432.805,103.695
	c-6.771,4.167-19.662,8.985-35.809-0.781c4.818-3.125,8.595-6.771,11.329-10.026c0.13,0.13,0.13,0.13,0.26,0.26
	C410.278,94.19,423.82,102.394,432.805,103.695z M409.888,85.857c-4.297,6.771-14.975,19.662-35.938,22.266
	c-29.036,3.646-47.526-9.245-47.787-9.375h-0.13c-1.302-3.125-3.255-7.682-5.729-12.5c4.167-2.083,18.1-7.943,36.72-1.042
	C377.855,93.019,398.168,91.456,409.888,85.857z M401.685,85.857c-11.459,2.995-27.475,2.865-43.62-3.255
	c-19.792-7.292-34.246-1.302-38.934,1.172c-1.302-2.474-2.604-4.948-3.906-7.422c2.344-1.953,14.975-10.808,40.365-7.422
	c0.391,0.391,1.042,0.521,1.563,0.26c0.261,0,0.391,0,0.651,0.13C382.804,73.227,397.257,82.471,401.685,85.857z M391.658,76.612
	c-7.422-3.646-17.969-7.552-31.901-9.896c6.25-6.38,18.099-17.969,21.745-19.401c4.817-1.953,20.833,1.042,23.698,2.865
	C405.2,52.914,398.429,65.674,391.658,76.612z M415.096,29.216c-0.391,2.083-4.817,10.547-9.375,18.229
	c-4.167-1.823-14.453-3.646-20.964-3.385c4.427-4.818,13.151-13.933,16.797-16.146C405.721,25.179,413.664,27.914,415.096,29.216z
	 M421.477,4.215c-0.912,4.427-3.256,13.412-5.859,22.136c-1.172-0.651-2.604-1.172-3.386-1.432
	c-1.172-0.391-4.428-1.172-7.683-0.912C411.319,15.934,418.091,7.861,421.477,4.215z M288.662,87.419
	c0.13,1.432,0.261,2.865,0.521,4.297c-0.65,0.26-41.146,20.313-42.708,80.86c-1.563,60.938-6.12,84.376-49.48,88.152
	c-0.391,0-0.781,0.261-1.042,0.521c-0.26,0.261-0.391,0.651-0.26,1.042c0.13,0.781,3.646,17.969,17.188,25.912
	c-23.568,7.031-38.281-1.693-44.922-7.553c-8.985-7.942-13.933-19.531-12.11-29.037c1.042-5.859,3.386-9.896,6.771-11.979
	c2.083-1.303,4.427-1.563,6.25-1.563c-2.083,1.822-3.385,4.688-3.255,7.552c0.13,2.864,1.954,9.766,16.667,10.938
	c26.172,2.214,41.537-25.651,48.438-87.631C237.75,107.081,282.151,89.633,288.662,87.419z M215.224,286.51
	c-10.938-5.859-15.234-18.75-16.406-23.047c43.881-4.558,48.829-30.078,50.392-90.756c1.302-54.558,34.896-75.131,40.364-77.996
	c0.391,1.953,0.781,3.776,1.172,5.729c-0.26,0-0.521,0.13-0.781,0.26c-15.494,11.458-23.698,54.819-19.531,102.866
	c3.906,44.922-13.933,61.72-29.688,67.97c-4.297,1.692-7.683,1.822-10.026,0.26c-3.385-2.213-3.646-7.161-3.646-7.161
	c0-0.521-0.391-1.042-0.911-1.302c-0.521-0.261-1.172-0.131-1.563,0.391c-4.297,4.427-5.208,10.547-2.344,15.625
	c2.864,5.208,8.724,8.073,16.537,8.594C229.808,290.416,221.865,290.025,215.224,286.51z M292.438,110.206
	c0.13,0.521,11.458,52.345,6.641,94.532c-5.078,44.792-22.396,73.568-47.657,79.168c-12.891,2.864-22.786,0.521-26.563-6.12
	c-1.693-3.125-1.693-6.771,0.13-9.896c0.651,2.084,1.823,4.558,4.297,6.12c3.125,2.083,7.422,2.083,12.63,0
	c13.542-5.339,35.678-21.615,31.381-70.704c-4.037-46.224,3.775-89.324,18.229-100.261c0.521,1.953,1.172,3.906,1.953,5.729
	C292.698,108.774,292.308,109.555,292.438,110.206z M185.146,317.5c-1.172,1.042-2.214,2.344-3.125,3.646
	c-3.255-1.822-13.802-6.9-26.042-3.516c-11.198,3.125-20.573,12.631-27.735,27.995c-1.172,2.475-2.213,4.948-2.995,7.422
	c-0.261-0.13-0.651-0.13-1.042,0.131c-5.989,2.864-11.458,3.255-15.885,1.172c-5.469-2.475-8.594-8.073-10.026-11.589
	c7.813,2.344,18.49-6.12,39.063-24.35C157.411,300.703,179.546,313.594,185.146,317.5z M88.53,441.851
	c-7.031,11.197-9.766,30.208-1.953,41.406c3.125,4.297,8.854,8.854,19.401,8.464c2.213-0.131,4.818-0.391,7.552-1.042
	c4.817,1.302,9.896,1.823,14.974,1.692c11.458-0.391,22.917-4.557,30.859-11.458c6.901-6.12,14.583-17.188,11.719-35.808
	c-4.558-30.6,4.036-54.298,7.292-61.72c1.693,7.422,4.037,15.104,6.771,22.917c15.365,42.97,59.767,85.027,69.532,86.72
	c1.302,0.261,2.604,0.261,4.036,0.261c7.942-0.261,15.495-5.6,20.183-14.453c3.125-5.859-3.125-19.792-9.245-33.204
	c-3.125-6.9-7.422-16.406-6.641-18.099c0.261-0.261,0.651-0.521,1.042-0.912c1.172-1.041,2.604-2.213,4.297-3.906
	c0.13,0,0.26,0,0.391,0h0.13c2.995-0.521,5.99-1.172,8.854-1.692c0,0,0,0,0,0.13c0.391,0.391,34.375,44.532,43.229,47.657
	c1.563,0.521,3.386,0.781,5.469,0.651c4.688-0.131,10.026-1.953,14.063-4.818c4.037-2.864,6.25-6.38,6.25-9.896
	c0-8.594-20.964-41.928-26.042-49.87c25.392-14.454,41.017-33.854,50.262-50.392c13.541-24.219,16.797-46.876,17.447-52.604
	c3.516,0.781,9.636,6.51,14.584,11.198c6.25,5.859,11.719,10.938,15.495,10.807c7.031-0.26,17.839-5.338,18.75-15.234
	c0.391-4.036-3.125-14.714-9.114-25.781c3.646,4.427,7.161,8.073,10.416,8.203c0.131,0,0.391,0,0.521,0
	c5.859-0.261,18.099-6.771,19.011-14.453c0.911-7.553-14.845-35.417-27.735-42.97c-12.76-7.422-39.844-3.906-42.448-3.516
	c-5.208-13.541-11.589-27.864-13.802-32.683c1.041,0.131,2.213,0.131,3.255,0.131c0.911,0,1.823,0,2.734,0
	c16.146-0.651,28.906-7.422,37.501-11.979c3.646-1.953,7.161-3.776,8.333-3.646c1.172,0.261,2.864,0.781,5.208,1.563
	c6.771,2.344,18.1,6.251,30.86,5.47c7.291-0.391,13.541-3.776,18.359-9.636c5.729-7.031,8.333-16.537,7.161-25.651
	c-2.083-15.235-13.281-36.589-27.864-36.068c-0.131,0-0.261,0-0.391,0c-10.808,0.781-29.167-4.948-35.808-7.161
	c7.031-1.693,12.239-5.208,14.713-7.292c0.781-0.391,1.433-1.042,1.823-1.693c0.391-0.651,0.261-1.432-0.391-1.823
	c-0.521-0.391-1.302-0.391-1.823,0.13c-0.13,0.13-0.521,0.521-1.041,1.042c-0.131,0.13-0.391,0.13-0.651,0.26
	c-5.859,1.433-20.833-6.901-26.172-10.156c3.385-4.427,4.688-7.943,4.817-7.943c0.261-0.521,0-1.172-0.391-1.563
	c-0.521-0.391-1.172-0.391-1.692,0c-2.083,1.433-4.688,2.734-7.683,3.776c-0.651-0.521-4.167-3.516-10.808-6.901
	c12.37-20.052,13.933-26.302,13.542-28.516c8.854-14.975,10.156-19.141,10.156-20.573c8.073-26.823,6.901-28.125,6.381-28.776
	c-0.391-0.391-0.912-0.521-1.433-0.391c-1.563,0.391-9.245,9.114-22.917,25.912c-5.208,3.385-17.969,17.448-19.792,19.271
	c-5.208,2.474-19.922,17.448-23.698,21.354c-25.911-3.516-39.063,4.948-42.448,7.682c-4.948-8.203-10.417-15.104-15.234-15.625
	c-1.823-0.13-4.297,0.391-6.38,3.646c-2.995,4.688-4.167,13.412-3.646,22.526c-3.906,1.172-52.995,18.229-60.417,84.506
	c-8.854,78.907-30.209,86.329-45.443,85.157c-8.854-0.781-13.933-3.776-14.193-8.333c-0.13-3.386,2.734-6.511,5.208-6.901
	c0.651-0.131,1.172-0.651,1.172-1.303c0-0.65-0.391-1.172-0.912-1.432c-0.26-0.131-6.641-2.214-12.5,1.302
	c-4.167,2.474-6.901,7.161-8.204,13.803c-1.823,10.416,3.386,23.047,13.021,31.511c5.469,4.817,16.016,11.458,31.901,10.807
	c5.078-0.13,10.677-1.172,16.927-3.125c0.391-0.13,0.651-0.391,0.911-0.781c4.037,1.823,8.594,2.604,13.412,2.475
	c1.823-0.131,3.646-0.261,5.469-0.651c-0.781,0.391-1.692,0.781-2.604,1.172c-15.495,6.901-34.505,15.364-44.662,22.917
	c-4.818-3.516-29.558-19.141-51.954,0.781c-23.828,20.964-32.683,27.214-38.933,22.396c-0.521-0.391-1.172-0.391-1.563,0
	c-0.521,0.391-0.781,0.911-0.521,1.563c0.13,0.521,3.386,12.239,12.761,16.666c2.474,1.172,5.208,1.693,7.943,1.563
	c2.864-0.13,5.859-0.911,9.115-2.213c-5.729,19.271-2.604,37.37,0.13,53.646c3.125,18.359,5.859,34.245-4.297,47.526
	c-3.516,4.688-8.724,9.505-13.281,6.38c-5.469-3.775-7.162-16.276-4.167-21.224c0.521-0.781,2.083-3.386,6.51-0.912
	c0.521,0.261,1.302,0.131,1.693-0.26c0.391-0.521,0.521-1.172,0.13-1.693c-0.13-0.26-4.167-6.641-10.417-6.641
	C96.212,432.865,92.176,435.99,88.53,441.851z"/>
<path fill="#C74939" d="M391.007,133.904c-11.719-9.505-22.786,3.646-23.177,4.297c-0.391,0.521-1.303,0.651-1.823,0.13
	c-0.521-0.391-0.651-1.302-0.13-1.823c0.13-0.13,5.078-6.12,12.239-8.073c4.297-1.172,9.375-0.781,14.583,3.385
	c0.521,0.391,0.651,1.302,0.261,1.823C392.309,134.295,391.527,134.295,391.007,133.904z"/>
<path fill="#C74939" d="M465.617,132.993c0.13,0,1.823,0.391,4.297,1.953c2.734,1.693,4.427,6.901,4.688,7.422
	c0.261,0.781-0.13,1.563-0.911,1.693c-0.131,0-0.261,0-0.391,0.13c-0.651,0-1.172-0.391-1.433-0.911
	c-0.651-1.823-2.083-5.078-3.516-5.99c-2.083-1.302-3.386-1.563-3.386-1.563c-0.781-0.13-1.172-0.912-1.041-1.693
	C464.185,133.253,464.966,132.732,465.617,132.993z"/>
<path fill="#F38171" d="M376.033,141.456c0-0.521-0.521-0.911-1.042-0.781c-1.823,0.391-2.864,1.693-3.906,3.125
	c-0.911,1.303-2.995,3.386-2.214,5.078c0.261,0.521,0.651,0.912,1.303,0.912c1.692,0.13,2.864-1.823,3.775-3.125
	C375.121,145.103,376.293,143.54,376.033,141.456z"/>
<path fill="#F38171" d="M379.939,141.717c-1.563,0.391-2.475,1.302-3.516,2.604c-1.042,1.302-2.604,2.734-2.865,4.296
	c-0.13,0.781,0.521,1.823,1.433,1.433c1.563-0.521,2.604-2.214,3.776-3.516s2.083-2.474,2.083-4.297
	C380.851,141.977,380.33,141.586,379.939,141.717z"/>
<path fill="#F38171" d="M385.147,144.842c0-0.391-0.391-0.521-0.781-0.521c-1.692-0.13-2.864,1.302-3.776,2.474
	c-1.041,1.172,0.261,3.125,1.693,2.214c0.781-0.391,1.563-0.912,2.213-1.563c0.391-0.391,0.521-0.912,0.651-1.303
	C385.277,145.623,385.147,145.232,385.147,144.842z"/>
<path fill="#FFD058" d="M28.373,301.875l-5.729-7.683l-2.604,9.114c-0.13,0.391-0.391,0.651-0.781,0.781l-9.115,2.995l7.943,5.339
	c0.26,0.261,0.521,0.521,0.521,0.911l0.13,9.506l7.552-5.859c0.13-0.131,0.391-0.261,0.521-0.261c0.13,0,0.391,0,0.521,0
	l9.115,2.864l-3.255-8.984c-0.13-0.391-0.13-0.781,0.13-1.041l5.599-7.813l-9.505,0.261
	C29.024,302.396,28.633,302.266,28.373,301.875z"/>
<path fill="#FFFACD" d="M31.237,310.078c-0.13,1.692,1.433,4.557,2.604,6.9c-1.823-0.911-3.776-1.692-5.859-2.344
	c-0.521-0.13-0.912,0-1.302,0.391c-1.563,1.823-3.385,3.516-5.208,5.079c-0.651-0.912,0.261-4.948-0.26-6.381
	c-0.912-2.474-4.688-4.558-7.162-6.12c2.214-0.65,4.427-1.302,6.641-1.953c0.391-0.13,0.651-0.26,0.781-0.65
	c0.651-2.084,1.302-4.167,1.953-6.381c0.781,1.823,1.693,3.646,2.995,4.558c1.692,1.172,5.729,0.651,8.724,0.261
	C33.321,305.65,31.368,308.125,31.237,310.078z M34.883,308.255c1.302-1.692,2.604-3.516,3.776-5.339
	c0.521-0.65,0-1.953-0.912-1.822c-2.604,0.13-5.208,0.13-7.813,0.26c-3.516,0.131-4.297-3.516-5.729-6.38
	c-0.391-0.911-1.823-0.911-2.083,0.13c-0.651,2.084-1.433,8.464-3.906,9.115c-2.734,0.781-5.469,1.692-8.073,2.734
	c-1.172,0.391-0.26,2.083,0.781,1.692c0.13,0,0.391-0.13,0.521-0.13c0.13,0.13,0.13,0.13,0.26,0.26
	c3.386,2.344,8.984,4.818,7.422,9.766c-0.651,1.954,0.651,2.084-0.781,4.037c-0.651,1.042,0.651,1.953,1.563,1.433
	c2.604-1.823,4.818-3.776,7.031-5.99c2.083-2.083,6.771,1.563,8.464,2.734c0.781,0.521,2.213-0.13,1.823-1.172
	c-0.651-2.604-1.563-4.948-2.734-7.292C33.321,310.859,33.321,309.557,34.883,308.255z"/>
<path fill="#FFFFFF" d="M17.436,316.198c-0.261,1.302-0.651,2.734-0.13,3.906c0.13,0.26,0.521,0.391,0.781,0.13
	c1.042-1.042,1.042-2.604,1.172-3.906C19.389,315.156,17.565,315.026,17.436,316.198z"/>
<path fill="#FCB036" d="M33.451,309.817c-0.26,0.261-0.26,0.781-0.13,1.042l3.255,8.984l-9.115-2.864c-0.13,0-0.391-0.131-0.521,0
	c-0.13,0-0.391,0.13-0.521,0.26l-7.552,5.859l-0.13-9.505c0-0.391-0.26-0.781-0.521-0.911l-7.943-5.339l9.115-2.995
	c0.391-0.13,0.651-0.391,0.781-0.781l2.604-9.114l5.729,7.682c0.261,0.261,0.651,0.521,1.042,0.521l9.505-0.261L33.451,309.817z
	 M42.306,300.313c-0.261-0.391-0.651-0.651-1.042-0.651l-11.328,0.391l-6.771-9.114c-0.521-0.781-1.823-0.521-2.083,0.391
	l-3.125,10.807L7.279,305.65c-0.391,0.131-0.781,0.521-0.781,0.912s0.13,0.911,0.521,1.172l9.375,6.38l0.13,11.328
	c0,0.391,0.26,0.912,0.651,1.042c0.391,0.261,0.912,0.13,1.172-0.13l8.984-6.901l10.808,3.386c0.13,0,0.391,0.13,0.521,0
	c0.26,0,0.521-0.131,0.651-0.391c0.26-0.261,0.391-0.781,0.26-1.172l-3.906-10.678l6.641-9.245
	C42.436,301.094,42.566,300.703,42.306,300.313z"/>
<path fill="#FFD058" d="M136.317,541.2l-5.729-7.682l-2.604,9.114c-0.13,0.391-0.391,0.651-0.781,0.781l-9.115,2.995l7.943,5.338
	c0.26,0.261,0.521,0.521,0.521,0.912l0.13,9.505l7.552-5.859c0.13-0.13,0.391-0.261,0.521-0.261c0.13,0,0.391,0,0.521,0l9.114,2.865
	l-3.255-8.984c-0.13-0.391-0.13-0.781,0.13-1.042l5.599-7.813l-9.505,0.261C136.968,541.722,136.577,541.461,136.317,541.2z"/>
<path fill="#FFFACD" d="M139.051,549.403c-0.13,1.693,1.432,4.558,2.604,6.901c-1.823-0.911-3.776-1.692-5.859-2.344
	c-0.521-0.13-0.912,0-1.302,0.391c-1.563,1.823-3.385,3.516-5.208,5.078c-0.651-0.911,0.26-4.948-0.261-6.38
	c-0.911-2.475-4.688-4.558-7.162-6.12c2.214-0.651,4.427-1.303,6.641-1.953c0.391-0.131,0.651-0.261,0.781-0.651
	c0.651-2.083,1.302-4.167,1.953-6.38c0.781,1.822,1.692,3.646,2.995,4.557c1.693,1.172,5.729,0.651,8.724,0.261
	C141.265,544.977,139.312,547.32,139.051,549.403z M142.827,547.58c1.302-1.692,2.604-3.516,3.776-5.338
	c0.521-0.651,0-1.953-0.912-1.823c-2.604,0.13-5.208,0.13-7.813,0.261c-3.516,0.13-4.297-3.516-5.729-6.381
	c-0.391-0.911-1.823-0.911-2.083,0.131c-0.651,2.083-1.433,8.463-3.907,9.114c-2.734,0.781-5.469,1.692-8.073,2.734
	c-1.172,0.391-0.26,2.084,0.781,1.693c0.13,0,0.391-0.131,0.521-0.131c0.13,0.131,0.13,0.131,0.26,0.261
	c3.385,2.344,8.984,4.817,7.422,9.766c-0.651,1.953,0.651,2.083-0.781,4.036c-0.651,1.042,0.651,1.953,1.563,1.433
	c2.604-1.823,4.818-3.776,7.031-5.989c2.083-2.084,6.771,1.563,8.464,2.734c0.781,0.521,2.213-0.131,1.823-1.172
	c-0.651-2.604-1.563-4.948-2.734-7.292C141.135,550.185,141.265,548.883,142.827,547.58z"/>
<path fill="#FFFFFF" d="M125.249,555.394c-0.261,1.302-0.651,2.734-0.13,3.906c0.13,0.26,0.521,0.391,0.781,0.13
	c1.042-1.042,1.042-2.604,1.172-3.906C127.332,554.481,125.509,554.352,125.249,555.394z"/>
<path fill="#FCB036" d="M141.265,549.144c-0.26,0.26-0.26,0.781-0.13,1.041l3.255,8.984l-9.115-2.864c-0.13,0-0.391-0.13-0.521,0
	c-0.13,0-0.391,0.13-0.521,0.261l-7.552,5.859l-0.13-9.506c0-0.391-0.26-0.781-0.521-0.911l-7.943-5.339l9.115-2.994
	c0.391-0.131,0.651-0.391,0.781-0.781l2.604-9.115l5.729,7.683c0.26,0.261,0.651,0.521,1.042,0.521l9.505-0.26L141.265,549.144z
	 M150.249,539.508c-0.26-0.391-0.651-0.651-1.042-0.651l-11.328,0.391l-6.771-9.114c-0.521-0.781-1.823-0.521-2.083,0.391
	l-3.125,10.808l-10.677,3.516c-0.391,0.13-0.781,0.521-0.781,0.911s0.13,0.911,0.521,1.172l9.375,6.38l0.13,11.329
	c0,0.391,0.26,0.911,0.651,1.041c0.391,0.261,0.912,0.131,1.172-0.13l8.984-6.901l10.808,3.386c0.13,0,0.391,0.13,0.521,0
	c0.26,0,0.521-0.13,0.651-0.391c0.26-0.261,0.391-0.781,0.26-1.172l-3.906-10.678l6.641-9.244
	C150.379,540.419,150.379,539.898,150.249,539.508z"/>
<path fill="#FFD058" d="M297.517,489.637l-5.729-7.682l-2.604,9.114c-0.13,0.391-0.391,0.651-0.781,0.781l-9.114,2.995l7.942,5.338
	c0.261,0.261,0.521,0.521,0.521,0.912l0.13,9.505l7.553-5.859c0.13-0.13,0.391-0.261,0.521-0.261s0.391,0,0.521,0l9.115,2.865
	l-3.256-8.984c-0.13-0.391-0.13-0.781,0.131-1.042l5.599-7.813l-9.505,0.261C298.037,490.158,297.777,489.897,297.517,489.637z"/>
<path fill="#FFFACD" d="M300.251,497.841c-0.13,1.692,1.433,4.557,2.604,6.9c-1.823-0.911-3.776-1.692-5.859-2.344
	c-0.521-0.13-0.912,0-1.303,0.391c-1.563,1.823-3.385,3.516-5.208,5.078c-0.651-0.911,0.261-4.947-0.261-6.38
	c-0.911-2.474-4.688-4.558-7.161-6.12c2.213-0.651,4.427-1.302,6.641-1.953c0.391-0.13,0.651-0.261,0.781-0.651
	c0.651-2.083,1.302-4.166,1.953-6.38c0.781,1.823,1.692,3.646,2.995,4.558c1.692,1.172,5.729,0.65,8.724,0.26
	C302.465,493.413,300.512,495.757,300.251,497.841z M304.027,496.018c1.302-1.692,2.604-3.516,3.775-5.339
	c0.521-0.651,0-1.953-0.911-1.823c-2.604,0.131-5.208,0.131-7.813,0.261c-3.516,0.13-4.297-3.516-5.729-6.38
	c-0.391-0.912-1.822-0.912-2.083,0.13c-0.651,2.083-1.433,8.464-3.906,9.115c-2.734,0.781-5.469,1.692-8.073,2.734
	c-1.172,0.391-0.261,2.083,0.781,1.692c0.13,0,0.391-0.13,0.521-0.13c0.131,0.13,0.131,0.13,0.261,0.26
	c3.386,2.344,8.984,4.818,7.422,9.766c-0.651,1.953,0.651,2.084-0.781,4.037c-0.651,1.041,0.651,1.953,1.563,1.432
	c2.604-1.822,4.817-3.775,7.031-5.989c2.084-2.083,6.771,1.563,8.464,2.734c0.781,0.521,2.214-0.13,1.823-1.172
	c-0.651-2.604-1.563-4.948-2.734-7.292C302.334,498.622,302.465,497.319,304.027,496.018z"/>
<path fill="#FFFFFF" d="M286.448,503.83c-0.26,1.302-0.65,2.734-0.13,3.906c0.13,0.261,0.521,0.391,0.781,0.13
	c1.042-1.041,1.042-2.604,1.172-3.906C288.532,502.919,286.709,502.788,286.448,503.83z"/>
<path fill="#FCB036" d="M302.465,497.58c-0.261,0.26-0.261,0.781-0.131,1.041l3.256,8.984l-9.115-2.864c-0.13,0-0.391-0.13-0.521,0
	c-0.13,0-0.391,0.13-0.521,0.261l-7.553,5.859l-0.13-9.506c0-0.391-0.261-0.781-0.521-0.911l-7.942-5.339l9.114-2.994
	c0.391-0.131,0.651-0.391,0.781-0.781l2.604-9.115l5.729,7.683c0.261,0.261,0.651,0.521,1.042,0.521l9.505-0.26L302.465,497.58z
	 M311.449,487.944c-0.261-0.391-0.651-0.651-1.042-0.651l-11.328,0.391l-6.771-9.114c-0.521-0.781-1.822-0.521-2.083,0.391
	l-3.125,10.808l-10.677,3.516c-0.391,0.13-0.781,0.521-0.781,0.911s0.13,0.911,0.521,1.172l9.375,6.38l0.13,11.329
	c0,0.39,0.261,0.911,0.651,1.041c0.391,0.261,0.911,0.131,1.172-0.13l8.984-6.901l10.808,3.386c0.13,0,0.391,0.13,0.521,0
	c0.261,0,0.521-0.131,0.651-0.391c0.261-0.261,0.391-0.781,0.261-1.172l-3.906-10.678l6.641-9.244
	C311.579,488.855,311.579,488.335,311.449,487.944z"/>
<path fill="#B7E5F9" d="M19.389,375.053c1.432,0,2.864,0.13,4.167,0.521c0.521,0.131,1.042,0,1.432-0.521
	c0.261-0.391,0.391-1.042,0-1.433c-2.344-3.775-2.083-9.114,0.781-13.411c2.344-3.646,6.38-6.641,11.849-8.725
	c4.688-1.822,9.766-2.734,14.844-2.734c5.469,0,10.938,1.172,15.755,3.256c9.635,4.297,17.057,13.151,19.531,23.047
	c0.13,0.391,0.391,0.781,0.781,0.911c0.391,0.131,0.781,0.131,1.172-0.13c1.693-0.911,3.646-1.433,5.729-1.433
	c6.12,0,11.849,4.167,13.151,9.506c0.781,3.516-0.13,7.422-2.604,10.677c-2.604,3.386-6.511,5.339-10.287,5.209
	c-0.651,0-1.172,0.391-1.302,0.911c-2.865,9.114-10.156,16.667-19.01,19.922c-3.255,1.172-6.641,1.693-10.157,1.693
	c-6.12,0-12.24-1.823-17.057-5.079c-0.261-0.13-0.521-0.26-0.781-0.26c-0.391,0-0.651,0.13-0.912,0.391
	c-5.078,5.078-11.849,8.073-18.099,8.073c-1.433,0-2.865-0.131-4.167-0.521c-4.167-0.911-8.073-3.776-10.286-7.552
	c-1.953-3.256-2.604-6.771-1.693-9.896c0.13-0.521-0.13-1.172-0.651-1.432c-7.031-3.776-10.547-13.412-7.422-20.834
	C6.107,379.22,12.618,375.053,19.389,375.053z"/>
<path fill="#FFFFFF" d="M8.321,378.048c3.906-2.734,10.417-4.948,15.495-3.646c-1.042-6.25-0.391-12.239,4.167-17.188
	c3.255-3.516,8.203-5.339,13.281-6.38c3.646-1.953,8.724-2.084,12.63-2.475c6.12-0.521,12.63,1.433,17.318,5.469
	c0.13,0.131,0.13,0.261,0.13,0.391c8.203,4.167,14.844,11.068,17.188,20.183c4.948-1.953,10.417,0,15.104,2.475
	c3.906,2.083,7.943,9.896,5.99,14.063c-0.261,0.391-0.912,0.261-1.042-0.13c-1.302-4.167-2.474-8.854-6.38-11.589
	c-3.516-2.475-10.547-3.906-14.063-0.912c-1.823,1.563-3.776-1.041-2.213-2.474c-4.818-13.021-15.625-20.703-29.428-22.396
	c-7.292-0.911-15.365,0.261-22.005,3.386c-8.203,3.776-8.203,11.85-7.292,19.531c0.521,0.521,0.391,1.303-0.13,1.693
	c-0.651,0.781-2.213,0.65-2.604-0.391c-4.948-1.303-11.589,0.781-15.365,4.036c-4.427,3.906-4.297,10.547-6.12,15.625
	c-0.13,0.521-1.042,0.651-1.172,0C0.378,390.548,2.461,381.954,8.321,378.048z"/>
<path fill="#84D3F5" d="M90.483,392.37c1.432-0.391,2.865-0.26,4.297-0.781c1.823-0.521,2.865-1.822,4.037-3.255
	c0.651-0.781,1.563,0.13,1.432,0.911c-0.521,3.776-7.292,7.683-10.156,4.297C89.832,393.151,89.962,392.501,90.483,392.37z"/>
<path fill="#84D3F5" d="M57.41,410.99c3.646-1.041,7.422-0.65,11.068-0.911c7.422-0.521,12.109-4.427,16.406-10.026
	c0.391-0.521,1.302-0.261,1.172,0.521c-2.864,11.068-19.01,15.756-28.776,11.72C56.889,411.902,56.759,411.121,57.41,410.99z"/>
<path fill="#84D3F5" d="M46.342,405.912c0.391,0,0.651-0.13,0.912-0.13c0.391,0.13,0.781,0.261,1.172,0.391
	c0.781,0.261,1.693,0.651,2.344,1.302c0.781,0.651,0.13,1.693-0.781,1.693c-0.912,0.13-1.953-0.261-2.604-0.651
	c-0.391-0.261-0.781-0.521-1.172-0.781c-0.391-0.391-0.391-0.651-0.651-1.042C45.691,406.303,45.821,405.912,46.342,405.912z"/>
<path fill="#84D3F5" d="M21.862,414.767c2.474,0.391,5.339,0.781,7.813,0.261c2.865-0.521,4.948-2.084,7.292-3.646
	c0.781-0.521,1.563,0.521,1.172,1.172c-1.563,2.865-4.688,4.297-7.683,5.078c-1.563,0.391-3.385,0.391-5.078,0.131
	c-2.083-0.261-2.734-0.912-4.167-2.214C20.69,415.418,21.211,414.767,21.862,414.767z"/>
<path fill="#4DC6F3" d="M3.633,385.339c2.474-5.989,8.985-10.286,15.756-10.286c1.432,0,2.864,0.13,4.167,0.521
	c0.521,0.131,1.042,0,1.432-0.521c0.261-0.391,0.391-1.042,0-1.433c-2.344-3.775-2.083-9.114,0.781-13.411
	c2.344-3.646,6.38-6.641,11.849-8.725c4.688-1.822,9.766-2.734,14.844-2.734c5.469,0,10.938,1.172,15.755,3.256
	c9.635,4.297,17.057,13.15,19.531,23.047c0.13,0.391,0.391,0.781,0.781,0.911c0.391,0.131,0.781,0.131,1.172-0.13
	c1.693-0.911,3.646-1.433,5.729-1.433c6.12,0,11.849,4.167,13.151,9.506c0.781,3.516-0.13,7.422-2.604,10.677
	c-2.604,3.386-6.511,5.339-10.287,5.209c-0.651,0-1.172,0.391-1.302,0.911c-2.865,9.114-10.156,16.667-19.01,19.922
	c-3.255,1.172-6.641,1.692-10.157,1.692c-6.12,0-12.24-1.822-17.057-5.078c-0.261-0.13-0.521-0.26-0.781-0.26
	c-0.391,0-0.651,0.13-0.912,0.391c-5.078,5.078-11.849,8.072-18.099,8.072c-1.433,0-2.865-0.13-4.167-0.521
	c-4.167-0.911-8.073-3.776-10.286-7.552c-1.954-3.256-2.604-6.771-1.693-9.896c0.13-0.521-0.13-1.172-0.651-1.432
	C4.024,402.267,0.638,392.761,3.633,385.339z M1.289,384.298c-3.385,8.333,0.13,18.88,7.813,23.567
	c-0.651,3.646,0.13,7.422,2.213,10.938c2.734,4.428,7.162,7.683,11.979,8.854c1.563,0.391,3.125,0.521,4.688,0.521
	c6.641,0,13.542-2.994,19.141-8.203c5.208,3.125,11.458,4.948,17.708,4.948c3.906,0,7.552-0.651,11.068-1.953
	c9.375-3.386,17.058-11.198,20.313-20.703c4.297-0.13,8.594-2.474,11.458-6.12c2.995-3.906,4.167-8.594,3.125-12.891
	c-1.563-6.511-8.333-11.589-15.625-11.589c-1.953,0-3.776,0.391-5.469,1.042c-2.995-10.026-10.677-18.75-20.573-23.178
	c-5.078-2.344-10.938-3.516-16.797-3.516c-5.338,0-10.808,1.042-15.755,2.865c-5.99,2.344-10.417,5.599-13.151,9.635
	c-2.864,4.297-3.516,9.506-1.953,13.803c-0.781-0.131-1.432-0.131-2.213-0.131C11.576,372.448,4.154,377.396,1.289,384.298z"/>
</svg>
