<svg xmlns="http://www.w3.org/2000/svg" width="177.021" height="39.358"><path fill="#010101" d="M41.836 3.304L44.904 0h4.367l-5.547 5.724h-3.717L34.401 0h4.543l2.892 3.304zm11.27 7.671l-3.187 3.659c-2.301-2.242-5.429-3.187-8.379-3.187-2.714 0-4.897 1.121-4.897 3.305 0 2.124 1.416 3.304 5.724 3.894 6.904.944 10.917 3.54 10.917 8.32 0 6.137-4.898 9.205-11.448 9.205-4.957 0-8.969-1.476-11.801-4.544l3.068-3.717c2.36 2.419 5.665 3.54 8.969 3.54 3.127 0 5.487-1.121 5.487-3.776 0-2.124-1.711-3.305-6.254-3.953-5.311-.826-10.326-2.892-10.326-8.379 0-5.37 4.484-8.615 10.68-8.615 4.898 0 8.497 1.416 11.447 4.248zM67.74 5.724L74.054 0h4.838l-7.14 5.724H67.74zm-.649 18.292h7.966l-3.895-11.448h-.059l-4.012 11.448zm.472-16.522h7.022l10.208 28.028h-5.842L76.532 28.5H65.498l-2.36 7.021h-5.783L67.563 7.494zM96.89 12.097v8.851h7.907c2.537 0 4.071-1.771 4.071-4.308 0-2.892-1.534-4.543-3.895-4.543H96.89zm18.823 23.425h-6.845l-7.848-10.09h-4.13v10.09h-5.487V7.494h13.926c6.019 0 9.205 4.012 9.205 8.851 0 4.779-3.01 7.729-7.672 8.319l8.851 10.858zM128.459 35.522h-5.488V7.494h5.488v14.221l11.093-14.221h6.432l-9.855 12.509 11.33 15.519h-6.904l-8.143-11.27-3.894 4.78v6.49zM159.26 24.016h7.967l-3.895-11.448h-.059l-4.013 11.448zm.472-16.522h7.021l10.268 28.028h-5.842l-2.419-7.021h-11.034l-2.42 7.021h-5.782l10.208-28.028zM0 39.358v-.708c1.003-.472 1.77-1.121 2.36-1.947.59-.826.885-1.416.885-1.888 0-.236-.059-.354-.236-.414-1.18-.177-1.947-.648-2.242-1.357a4.322 4.322 0 0 1-.472-2.006c0-1.063.354-1.889 1.062-2.479.708-.59 1.534-.943 2.479-.943 1.121 0 2.065.412 2.833 1.238.708.826 1.062 1.83 1.062 2.951 0 1.063-.295 2.064-.944 3.127-.649 1.063-1.593 2.006-2.773 2.832S1.534 39.122 0 39.358zM18.41 27.852c.944 0 1.711.354 2.36 1.003s1.003 1.476 1.003 2.36-.354 1.652-1.003 2.359c-.649.709-1.416 1.004-2.36 1.004s-1.711-.354-2.36-1.004c-.649-.648-1.003-1.416-1.003-2.359 0-.944.295-1.711.944-2.36.649-.708 1.475-1.003 2.419-1.003z"/></svg>